<svg xmlns="http://www.w3.org/2000/svg" xmlns:xlink="http://www.w3.org/1999/xlink" xmlns:lucid="lucid" width="1263" height="723"><g transform="translate(-138.5 -298.5)" lucid:page-tab-id="0_0"><path d="M160 346a6 6 0 0 1 6-6h208a6 6 0 0 1 6 6v68a6 6 0 0 1-6 6H166a6 6 0 0 1-6-6z" stroke="#000" stroke-opacity="0" stroke-width="3" fill="#fff"/><use xlink:href="#a" transform="matrix(1,0,0,1,165,345) translate(15.246913580246911 27.34722222222222)"/><use xlink:href="#b" transform="matrix(1,0,0,1,165,345) translate(102.01234567901236 27.34722222222222)"/><use xlink:href="#c" transform="matrix(1,0,0,1,165,345) translate(182.90123456790124 27.34722222222222)"/><use xlink:href="#d" transform="matrix(1,0,0,1,165,345) translate(70.9753086419753 48.68055555555556)"/><path d="M400 346a6 6 0 0 1 6-6h208a6 6 0 0 1 6 6v68a6 6 0 0 1-6 6H406a6 6 0 0 1-6-6z" stroke="#000" stroke-opacity="0" stroke-width="3" fill="#fff"/><use xlink:href="#e" transform="matrix(1,0,0,1,405,345) translate(20.191358024691354 27.34722222222222)"/><use xlink:href="#f" transform="matrix(1,0,0,1,405,345) translate(102.01851851851852 27.34722222222222)"/><use xlink:href="#g" transform="matrix(1,0,0,1,405,345) translate(38.85802469135801 48.68055555555556)"/><use xlink:href="#h" transform="matrix(1,0,0,1,405,345) translate(89.22839506172838 48.68055555555556)"/><use xlink:href="#i" transform="matrix(1,0,0,1,405,345) translate(106.01851851851852 48.68055555555556)"/><path d="M640 346a6 6 0 0 1 6-6h208a6 6 0 0 1 6 6v68a6 6 0 0 1-6 6H646a6 6 0 0 1-6-6z" stroke="#000" stroke-opacity="0" stroke-width="3" fill="#fff"/><use xlink:href="#j" transform="matrix(1,0,0,1,645,345) translate(18.660493827160508 38.28472222222222)"/><use xlink:href="#k" transform="matrix(1,0,0,1,645,345) translate(47.302469135802475 38.28472222222222)"/><use xlink:href="#l" transform="matrix(1,0,0,1,645,345) translate(67.05555555555556 38.28472222222222)"/><use xlink:href="#m" transform="matrix(1,0,0,1,645,345) translate(126.21604938271604 38.28472222222222)"/><path d="M1060 326a6 6 0 0 1 6-6h228a6 6 0 0 1 6 6v88a6 6 0 0 1-6 6h-228a6 6 0 0 1-6-6z" stroke="#000" stroke-opacity="0" stroke-width="3" fill="#fff"/><use xlink:href="#n" transform="matrix(1,0,0,1,1065,325) translate(32.703703703703724 36.72222222222222)"/><use xlink:href="#o" transform="matrix(1,0,0,1,1065,325) translate(108.65432098765432 36.72222222222222)"/><use xlink:href="#p" transform="matrix(1,0,0,1,1065,325) translate(59.271604938271615 58.05555555555555)"/><path d="M334.2 528.4c19.77 0 35.8 16.03 35.8 35.8 0 19.77-16.03 35.8-35.8 35.8h-88.4c-19.77 0-35.8-16.03-35.8-35.8 0-19.77 16.03-35.8 35.8-35.8z" stroke="#000" stroke-opacity="0" stroke-width="3" fill="#fff" fill-opacity=".3"/><use xlink:href="#q" transform="matrix(1,0,0,1,215.00000000000006,533.4000000000001) translate(26.259259259259274 35.69444444444444)"/><use xlink:href="#r" transform="matrix(1,0,0,1,215.00000000000006,533.4000000000001) translate(107.32098765432099 35.69444444444444)"/><path d="M530 520c22.1 0 40 17.9 40 40s-17.9 40-40 40h-80c-22.1 0-40-17.9-40-40s17.9-40 40-40z" stroke="#000" stroke-opacity="0" stroke-width="3" fill="#fff" fill-opacity=".3"/><use xlink:href="#s" transform="matrix(1,0,0,1,415,525) translate(3.4012345679012412 27.756944444444443)"/><use xlink:href="#t" transform="matrix(1,0,0,1,415,525) translate(97.46913580246913 27.756944444444443)"/><use xlink:href="#u" transform="matrix(1,0,0,1,415,525) translate(135.4074074074074 27.756944444444443)"/><use xlink:href="#v" transform="matrix(1,0,0,1,415,525) translate(40.043209876543216 46.42361111111111)"/><path d="M731.33 520c22.1 0 40 17.9 40 40s-17.9 40-40 40h-80c-22.1 0-40-17.9-40-40s17.9-40 40-40z" stroke="#000" stroke-opacity="0" stroke-width="3" fill="#fff" fill-opacity=".3"/><use xlink:href="#w" transform="matrix(1,0,0,1,616.3333333333338,525) translate(16.75808641975309 19.006944444444443)"/><use xlink:href="#x" transform="matrix(1,0,0,1,616.3333333333338,525) translate(16.385802469135818 37.67361111111111)"/><use xlink:href="#y" transform="matrix(1,0,0,1,616.3333333333338,525) translate(84.48456790123456 37.67361111111111)"/><use xlink:href="#u" transform="matrix(1,0,0,1,616.3333333333338,525) translate(122.42283950617283 37.67361111111111)"/><use xlink:href="#v" transform="matrix(1,0,0,1,616.3333333333338,525) translate(40.04820987654321 56.34027777777777)"/><path d="M1170 568.47c0 44.18-35.82 80-80 80s-80-35.82-80-80c0-44.2 35.82-80 80-80s80 35.8 80 80z" stroke="#000" stroke-opacity="0" stroke-width="3" fill="#b1b1ff"/><use xlink:href="#z" transform="matrix(1,0,0,1,1015,493.4666666666667) translate(22.867283950617292 78.06944444444444)"/><use xlink:href="#A" transform="matrix(1,0,0,1,1015,493.4666666666667) translate(71.99691358024691 78.06944444444444)"/><path d="M1370 563.47c0 46.1-35.82 83.46-80 83.46s-80-37.37-80-83.46c0-46.1 35.82-83.47 80-83.47s80 37.37 80 83.47z" stroke="#000" stroke-opacity="0" stroke-width="3" fill="#b1b1ff"/><use xlink:href="#B" transform="matrix(1,0,0,1,1215,485.00000000000006) translate(52.595679012345684 71.31944444444444)"/><use xlink:href="#C" transform="matrix(1,0,0,1,1215,485.00000000000006) translate(16.38580246913581 89.9861111111111)"/><path d="M200 770a50 50 0 0 1 50-50h80a50 50 0 0 1 50 50v180a50 50 0 0 1-50 50h-80a50 50 0 0 1-50-50z" fill-opacity="0"/><path d="M206.82 745.07l2.73-4.46 5.1-5.96 5.96-5.1 4.47-2.72m12.02-4.98l5.08-1.22L250 720h13.33m13.34 0h26.66m13.34 0H330l7.82.62 5.1 1.22m12 4.98l4.47 2.73 5.96 5.1 5.1 5.96 2.72 4.47m4.98 12.02l1.22 5.08.62 7.82v15m0 15v30m0 15v30m0 15v30m0 15v15l-.62 7.82-1.22 5.1m-4.98 12l-2.73 4.47-5.1 5.96-5.96 5.1-4.47 2.72m-12.02 4.98l-5.08 1.22-7.82.62h-13.33m-13.34 0h-26.66m-13.34 0H250l-7.82-.62-5.1-1.22m-12-4.98l-4.47-2.73-5.95-5.1-5.1-5.96-2.73-4.47m-4.98-12.02l-1.22-5.08L200 950v-15m0-15v-30m0-15v-30m0-15v-30m0-15v-15l.62-7.82 1.22-5.1" stroke="#5e5e5e" stroke-width="3" fill="none"/><path d="M210 726a6 6 0 0 1 6-6h148a6 6 0 0 1 6 6v239.67a6 6 0 0 1-6 6H216a6 6 0 0 1-6-6z" stroke="#000" stroke-opacity="0" stroke-width="3" fill="#fff" fill-opacity="0"/><use xlink:href="#D" transform="matrix(1,0,0,1,215.00000000000006,725) translate(24.907407407407433 33.354166666666664)"/><use xlink:href="#E" transform="matrix(1,0,0,1,215.00000000000006,725) translate(88.46296296296296 33.354166666666664)"/><use xlink:href="#F" transform="matrix(1,0,0,1,215.00000000000006,725) translate(75.5 49.354166666666664)"/><use xlink:href="#G" transform="matrix(1,0,0,1,215.00000000000006,725) translate(0.8888888888889284 65.35416666666666)"/><use xlink:href="#H" transform="matrix(1,0,0,1,215.00000000000006,725) translate(73.25925925925925 65.35416666666666)"/><use xlink:href="#F" transform="matrix(1,0,0,1,215.00000000000006,725) translate(75.5 81.35416666666666)"/><use xlink:href="#I" transform="matrix(1,0,0,1,215.00000000000006,725) translate(4.222222222222257 97.35416666666666)"/><use xlink:href="#J" transform="matrix(1,0,0,1,215.00000000000006,725) translate(93.55555555555554 97.35416666666666)"/><use xlink:href="#F" transform="matrix(1,0,0,1,215.00000000000006,725) translate(75.5 113.35416666666666)"/><use xlink:href="#K" transform="matrix(1,0,0,1,215.00000000000006,725) translate(16.055555555555586 129.35416666666666)"/><use xlink:href="#L" transform="matrix(1,0,0,1,215.00000000000006,725) translate(78.01851851851852 129.35416666666666)"/><use xlink:href="#F" transform="matrix(1,0,0,1,215.00000000000006,725) translate(75.5 145.35416666666666)"/><use xlink:href="#M" transform="matrix(1,0,0,1,215.00000000000006,725) translate(4.888888888888928 161.35416666666666)"/><use xlink:href="#N" transform="matrix(1,0,0,1,215.00000000000006,725) translate(99.5185185185185 161.35416666666666)"/><use xlink:href="#F" transform="matrix(1,0,0,1,215.00000000000006,725) translate(75.5 177.35416666666666)"/><use xlink:href="#O" transform="matrix(1,0,0,1,215.00000000000006,725) translate(8.240740740740776 193.35416666666666)"/><use xlink:href="#P" transform="matrix(1,0,0,1,215.00000000000006,725) translate(77.72222222222221 193.35416666666666)"/><use xlink:href="#Q" transform="matrix(1,0,0,1,215.00000000000006,725) translate(41.166666666666686 209.35416666666666)"/><path d="M400 770a50 50 0 0 1 50-50h80a50 50 0 0 1 50 50v180a50 50 0 0 1-50 50h-80a50 50 0 0 1-50-50z" fill-opacity="0"/><path d="M406.82 745.07l2.73-4.46 5.1-5.96 5.96-5.1 4.47-2.72m12.02-4.98l5.08-1.22L450 720h13.33m13.34 0h26.66m13.34 0H530l7.82.62 5.1 1.22m12 4.98l4.47 2.73 5.96 5.1 5.1 5.96 2.72 4.47m4.98 12.02l1.22 5.08.62 7.82v15m0 15v30m0 15v30m0 15v30m0 15v15l-.62 7.82-1.22 5.1m-4.98 12l-2.73 4.47-5.1 5.96-5.96 5.1-4.47 2.72m-12.02 4.98l-5.08 1.22-7.82.62h-13.33m-13.34 0h-26.66m-13.34 0H450l-7.82-.62-5.1-1.22m-12-4.98l-4.47-2.73-5.96-5.1-5.1-5.96-2.72-4.47m-4.98-12.02l-1.22-5.08L400 950v-15m0-15v-30m0-15v-30m0-15v-30m0-15v-15l.62-7.82 1.22-5.1" stroke="#5e5e5e" stroke-width="3" fill="none"/><path d="M410 726a6 6 0 0 1 6-6h148a6 6 0 0 1 6 6v239.67a6 6 0 0 1-6 6H416a6 6 0 0 1-6-6z" stroke="#000" stroke-opacity="0" stroke-width="3" fill="#fff" fill-opacity="0"/><use xlink:href="#R" transform="matrix(1,0,0,1,415,725) translate(7.666666666666686 25.791666666666664)"/><use xlink:href="#S" transform="matrix(1,0,0,1,415,725) translate(61 25.791666666666664)"/><use xlink:href="#T" transform="matrix(1,0,0,1,415,725) translate(74.29629629629629 25.791666666666664)"/><use xlink:href="#U" transform="matrix(1,0,0,1,415,725) translate(10.296296296296333 41.79166666666666)"/><use xlink:href="#V" transform="matrix(1,0,0,1,415,725) translate(79.77777777777777 41.79166666666666)"/><use xlink:href="#F" transform="matrix(1,0,0,1,415,725) translate(75 57.79166666666666)"/><use xlink:href="#W" transform="matrix(1,0,0,1,415,725) translate(11.129629629629662 73.79166666666666)"/><use xlink:href="#X" transform="matrix(1,0,0,1,415,725) translate(84.24074074074073 73.79166666666666)"/><use xlink:href="#Y" transform="matrix(1,0,0,1,415,725) translate(55.40740740740742 89.79166666666666)"/><use xlink:href="#F" transform="matrix(1,0,0,1,415,725) translate(75 105.79166666666666)"/><use xlink:href="#Z" transform="matrix(1,0,0,1,415,725) translate(2.5370370370370665 121.79166666666666)"/><use xlink:href="#aa" transform="matrix(1,0,0,1,415,725) translate(68.31481481481481 121.79166666666666)"/><use xlink:href="#ab" transform="matrix(1,0,0,1,415,725) translate(22.51851851851854 137.79166666666666)"/><use xlink:href="#ac" transform="matrix(1,0,0,1,415,725) translate(75.74074074074073 137.79166666666666)"/><use xlink:href="#ad" transform="matrix(1,0,0,1,415,725) translate(89.03703703703704 137.79166666666666)"/><use xlink:href="#F" transform="matrix(1,0,0,1,415,725) translate(75 153.79166666666663)"/><use xlink:href="#ae" transform="matrix(1,0,0,1,415,725) translate(15.111111111111136 169.79166666666663)"/><use xlink:href="#af" transform="matrix(1,0,0,1,415,725) translate(78.74074074074073 169.79166666666663)"/><use xlink:href="#F" transform="matrix(1,0,0,1,415,725) translate(75 185.79166666666663)"/><use xlink:href="#ag" transform="matrix(1,0,0,1,415,725) translate(25.203703703703724 201.79166666666663)"/><use xlink:href="#ah" transform="matrix(1,0,0,1,415,725) translate(82.94444444444444 201.79166666666663)"/><use xlink:href="#ai" transform="matrix(1,0,0,1,415,725) translate(44.37037037037038 217.79166666666663)"/><path d="M600 770a50 50 0 0 1 50-50h80a50 50 0 0 1 50 50v180a50 50 0 0 1-50 50h-80a50 50 0 0 1-50-50z" fill-opacity="0"/><path d="M606.82 745.07l2.73-4.46 5.1-5.96 5.96-5.1 4.47-2.72m12.02-4.98l5.08-1.22L650 720h13.33m13.34 0h26.66m13.34 0H730l7.82.62 5.1 1.22m12 4.98l4.47 2.73 5.96 5.1 5.1 5.96 2.72 4.47m4.98 12.02l1.22 5.08.62 7.82v15m0 15v30m0 15v30m0 15v30m0 15v15l-.62 7.82-1.22 5.1m-4.98 12l-2.73 4.47-5.1 5.96-5.96 5.1-4.47 2.72m-12.02 4.98l-5.08 1.22-7.82.62h-13.33m-13.34 0h-26.66m-13.34 0H650l-7.82-.62-5.1-1.22m-12-4.98l-4.47-2.73-5.96-5.1-5.1-5.96-2.72-4.47m-4.98-12.02l-1.22-5.08L600 950v-15m0-15v-30m0-15v-30m0-15v-30m0-15v-15l.62-7.82 1.22-5.1" stroke="#5e5e5e" stroke-width="3" fill="none"/><path d="M610 726a6 6 0 0 1 6-6h149.33a6 6 0 0 1 6 6v239.67a6 6 0 0 1-6 6H616a6 6 0 0 1-6-6z" stroke="#000" stroke-opacity="0" stroke-width="3" fill="#fff" fill-opacity="0"/><g><use xlink:href="#aj" transform="matrix(1,0,0,1,615.0000000000007,725) translate(12.388888888888928 71.16666666666666)"/><use xlink:href="#ak" transform="matrix(1,0,0,1,615.0000000000007,725) translate(117.4259259259259 71.16666666666666)"/><use xlink:href="#al" transform="matrix(1,0,0,1,615.0000000000007,725) translate(23.55555555555558 87.16666666666666)"/><use xlink:href="#am" transform="matrix(1,0,0,1,615.0000000000007,725) translate(73.81481481481481 87.16666666666666)"/><use xlink:href="#F" transform="matrix(1,0,0,1,615.0000000000007,725) translate(76 103.16666666666666)"/><use xlink:href="#an" transform="matrix(1,0,0,1,615.0000000000007,725) translate(23.203703703703724 119.16666666666666)"/><use xlink:href="#af" transform="matrix(1,0,0,1,615.0000000000007,725) translate(72.64814814814815 119.16666666666666)"/><use xlink:href="#F" transform="matrix(1,0,0,1,615.0000000000007,725) translate(76 135.16666666666666)"/><use xlink:href="#ao" transform="matrix(1,0,0,1,615.0000000000007,725) translate(13.907407407407433 151.16666666666666)"/><use xlink:href="#ap" transform="matrix(1,0,0,1,615.0000000000007,725) translate(73.05555555555556 151.16666666666666)"/><use xlink:href="#F" transform="matrix(1,0,0,1,615.0000000000007,725) translate(76 167.16666666666666)"/><use xlink:href="#aq" transform="matrix(1,0,0,1,615.0000000000007,725) translate(18.703703703703724 183.16666666666666)"/><use xlink:href="#ar" transform="matrix(1,0,0,1,615.0000000000007,725) translate(71.92592592592592 183.16666666666666)"/></g><path d="M1000 770a50 50 0 0 1 50-50h80a50 50 0 0 1 50 50v180a50 50 0 0 1-50 50h-80a50 50 0 0 1-50-50zM1200 770a50 50 0 0 1 50-50h80a50 50 0 0 1 50 50v180a50 50 0 0 1-50 50h-80a50 50 0 0 1-50-50z" stroke="#000" stroke-opacity="0" stroke-width="3" fill="#d2d2ff"/><path d="M1010 726a6 6 0 0 1 6-6h148a6 6 0 0 1 6 6v239.67a6 6 0 0 1-6 6h-148a6 6 0 0 1-6-6z" stroke="#000" stroke-opacity="0" stroke-width="3" fill="#fff" fill-opacity="0"/><g><use xlink:href="#aj" transform="matrix(1,0,0,1,1015,725) translate(11.388888888888928 71.16666666666666)"/><use xlink:href="#ak" transform="matrix(1,0,0,1,1015,725) translate(116.4259259259259 71.16666666666666)"/><use xlink:href="#al" transform="matrix(1,0,0,1,1015,725) translate(22.55555555555558 87.16666666666666)"/><use xlink:href="#am" transform="matrix(1,0,0,1,1015,725) translate(72.81481481481481 87.16666666666666)"/><use xlink:href="#F" transform="matrix(1,0,0,1,1015,725) translate(75 103.16666666666666)"/><use xlink:href="#an" transform="matrix(1,0,0,1,1015,725) translate(22.203703703703724 119.16666666666666)"/><use xlink:href="#af" transform="matrix(1,0,0,1,1015,725) translate(71.64814814814815 119.16666666666666)"/><use xlink:href="#F" transform="matrix(1,0,0,1,1015,725) translate(75 135.16666666666666)"/><use xlink:href="#ao" transform="matrix(1,0,0,1,1015,725) translate(12.907407407407433 151.16666666666666)"/><use xlink:href="#ap" transform="matrix(1,0,0,1,1015,725) translate(72.05555555555556 151.16666666666666)"/><use xlink:href="#F" transform="matrix(1,0,0,1,1015,725) translate(75 167.16666666666666)"/><use xlink:href="#aq" transform="matrix(1,0,0,1,1015,725) translate(17.703703703703724 183.16666666666666)"/><use xlink:href="#ar" transform="matrix(1,0,0,1,1015,725) translate(70.92592592592592 183.16666666666666)"/></g><path d="M1210 726a6 6 0 0 1 6-6h148a6 6 0 0 1 6 6v239.67a6 6 0 0 1-6 6h-148a6 6 0 0 1-6-6z" stroke="#000" stroke-opacity="0" stroke-width="3" fill="#fff" fill-opacity="0"/><g><use xlink:href="#aj" transform="matrix(1,0,0,1,1215,725) translate(11.388888888888928 71.16666666666666)"/><use xlink:href="#ak" transform="matrix(1,0,0,1,1215,725) translate(116.4259259259259 71.16666666666666)"/><use xlink:href="#al" transform="matrix(1,0,0,1,1215,725) translate(22.55555555555558 87.16666666666666)"/><use xlink:href="#am" transform="matrix(1,0,0,1,1215,725) translate(72.81481481481481 87.16666666666666)"/><use xlink:href="#F" transform="matrix(1,0,0,1,1215,725) translate(75 103.16666666666666)"/><use xlink:href="#an" transform="matrix(1,0,0,1,1215,725) translate(22.203703703703724 119.16666666666666)"/><use xlink:href="#af" transform="matrix(1,0,0,1,1215,725) translate(71.64814814814815 119.16666666666666)"/><use xlink:href="#F" transform="matrix(1,0,0,1,1215,725) translate(75 135.16666666666666)"/><use xlink:href="#ao" transform="matrix(1,0,0,1,1215,725) translate(12.907407407407433 151.16666666666666)"/><use xlink:href="#ap" transform="matrix(1,0,0,1,1215,725) translate(72.05555555555556 151.16666666666666)"/><use xlink:href="#F" transform="matrix(1,0,0,1,1215,725) translate(75 167.16666666666666)"/><use xlink:href="#aq" transform="matrix(1,0,0,1,1215,725) translate(17.703703703703724 183.16666666666666)"/><use xlink:href="#ar" transform="matrix(1,0,0,1,1215,725) translate(70.92592592592592 183.16666666666666)"/></g><path d="M571 560h39.33" stroke="#fff" stroke-width="2" fill="none"/><path d="M571.03 561h-1.1l.07-1-.03-1h1.06zM611.33 560l.04 1h-1.06v-2h1.1z" stroke="#fff" stroke-width=".05" fill="#fff"/><path d="M371 564.2h19.1a.04.04 0 0 0 .03-.04.04.04 0 0 1 .04-.04h19.1" stroke="#fff" stroke-width="2" fill="none"/><path d="M371.03 565.2h-1.1l.07-1-.02-1h1.05zM410.4 565.12h-1.16v-2h.9z" stroke="#fff" stroke-width=".05" fill="#fff"/><path d="M381 380h18" stroke="#fff" stroke-width="2" fill="none"/><path d="M381.03 381H380v-2h1.03z" stroke="#fff" stroke-width=".05" fill="#fff"/><path d="M398.97 380H400M621 380h18" stroke="#fff" stroke-width="2" fill="none"/><path d="M621.03 381H620v-2h1.03zM640 381h-1.03v-2H640z" stroke="#fff" stroke-width=".05" fill="#fff"/><path d="M861 380h98.94a.06.06 0 0 0 .06-.06.06.06 0 0 1 .06-.06H1059" stroke="#fff" stroke-width="2" fill="none"/><path d="M861.03 381H860v-2h1.03zM1060 380.88h-1.03v-2h1.03z" stroke="#fff" stroke-width=".05" fill="#fff"/><path d="M281.18 421v52.82a.38.38 0 0 0 .38.38.38.38 0 0 1 .38.38v52.82" stroke="#fff" stroke-width="2" fill="none"/><path d="M282.18 421.03h-2V420h2zM282.94 528.4h-2v-1.03h2z" stroke="#fff" stroke-width=".05" fill="#fff"/><path d="M492.26 421v48.64a.36.36 0 0 1-.36.36.36.36 0 0 0-.36.36V519" stroke="#fff" stroke-width="2" fill="none"/><path d="M493.26 421.03h-2V420h2zM492.54 520h-2v-1.03h2z" stroke="#fff" stroke-width=".05" fill="#fff"/><path d="M697.02 421v47.94a1.06 1.06 0 0 1-1.06 1.06 1.06 1.06 0 0 0-1.06 1.06V519" stroke="#fff" stroke-width="2" fill="none"/><path d="M698.02 421.03h-2V420h2zM695.9 520h-2v-1.03h2z" stroke="#fff" stroke-width=".05" fill="#fff"/><path d="M772.33 560h237.15" stroke="#fff" stroke-width="2" fill="none"/><path d="M772.36 561h-1.1l.07-1-.03-1h1.06zM1010.38 561h-.93v-2h1.12z" stroke="#fff" stroke-width=".05" fill="#fff"/><path d="M1180 421v27.23a6 6 0 0 1-6 6h-78a6 6 0 0 0-6 6v27.24" stroke="#fff" stroke-width="2" fill="none"/><path d="M1181 421.03h-2V420h2zM1091 488.5l-1-.03h-1v-1.03h2z" stroke="#fff" stroke-width=".05" fill="#fff"/><path d="M1180 421v27.98a6 6 0 0 0 6 6h98a6 6 0 0 1 6 6V479" stroke="#fff" stroke-width="2" fill="none"/><path d="M1181 421.03h-2V420h2zM1291 480.03l-1-.03h-1v-1.03h2z" stroke="#fff" stroke-width=".05" fill="#fff"/><path d="M1090 649.47V719" stroke="#fff" stroke-width="2" fill="none"/><path d="M1090 648.47h.68l.32-.02v1.04h-2v-1.07z" stroke="#fff" stroke-width=".05" fill="#fff"/><path d="M1090 718.97V720M1290 647.93V719" stroke="#fff" stroke-width="2" fill="none"/><path d="M1290 646.93h1v1.03h-2v-1.06zM1291 720h-2v-1.03h2z" stroke="#fff" stroke-width=".05" fill="#fff"/><path d="M691.33 601v118" stroke="#fff" stroke-width="2" fill="none"/><path d="M692.33 601.03h-2V600h2zM692.33 720h-2v-1.03h2z" stroke="#fff" stroke-width=".05" fill="#fff"/><path d="M490 601v116.5" stroke="#fff" stroke-width="2" fill="none"/><path d="M491 601.03h-2V600h2zM491 718.5h-2v-1.03h2z" stroke="#fff" stroke-width=".05" fill="#fff"/><path d="M290 601v116.5" stroke="#fff" stroke-width="2" fill="none"/><path d="M291 601.03h-2V600h2zM291 718.5h-2v-1.03h2z" stroke="#fff" stroke-width=".05" fill="#fff"/><defs><path d="M212-179c-10-28-35-45-73-45-59 0-87 40-87 99 0 60 29 101 89 101 43 0 62-24 78-52l27 14C228-24 195 4 139 4 59 4 22-46 18-125c-6-104 99-153 187-111 19 9 31 26 39 46" id="as"/><path d="M100-194c62-1 85 37 85 99 1 63-27 99-86 99S16-35 15-95c0-66 28-99 85-99zM99-20c44 1 53-31 53-75 0-43-8-75-51-75s-53 32-53 75 10 74 51 75" id="at"/><path d="M117-194c89-4 53 116 60 194h-32v-121c0-31-8-49-39-48C34-167 62-67 57 0H25l-1-190h30c1 10-1 24 2 32 11-22 29-35 61-36" id="au"/><path d="M135-143c-3-34-86-38-87 0 15 53 115 12 119 90S17 21 10-45l28-5c4 36 97 45 98 0-10-56-113-15-118-90-4-57 82-63 122-42 12 7 21 19 24 35" id="av"/><path d="M84 4C-5 8 30-112 23-190h32v120c0 31 7 50 39 49 72-2 45-101 50-169h31l1 190h-30c-1-10 1-25-2-33-11 22-28 36-60 37" id="aw"/><path d="M210-169c-67 3-38 105-44 169h-31v-121c0-29-5-50-35-48C34-165 62-65 56 0H25l-1-190h30c1 10-1 24 2 32 10-44 99-50 107 0 11-21 27-35 58-36 85-2 47 119 55 194h-31v-121c0-29-5-49-35-48" id="ax"/><path d="M100-194c63 0 86 42 84 106H49c0 40 14 67 53 68 26 1 43-12 49-29l28 8c-11 28-37 45-77 45C44 4 14-33 15-96c1-61 26-98 85-98zm52 81c6-60-76-77-97-28-3 7-6 17-6 28h103" id="ay"/><path d="M114-163C36-179 61-72 57 0H25l-1-190h30c1 12-1 29 2 39 6-27 23-49 58-41v29" id="az"/><g id="a"><use transform="matrix(0.04938271604938272,0,0,0.04938271604938272,0,0)" xlink:href="#as"/><use transform="matrix(0.04938271604938272,0,0,0.04938271604938272,12.790123456790125,0)" xlink:href="#at"/><use transform="matrix(0.04938271604938272,0,0,0.04938271604938272,22.66666666666667,0)" xlink:href="#au"/><use transform="matrix(0.04938271604938272,0,0,0.04938271604938272,32.543209876543216,0)" xlink:href="#av"/><use transform="matrix(0.04938271604938272,0,0,0.04938271604938272,41.4320987654321,0)" xlink:href="#aw"/><use transform="matrix(0.04938271604938272,0,0,0.04938271604938272,51.308641975308646,0)" xlink:href="#ax"/><use transform="matrix(0.04938271604938272,0,0,0.04938271604938272,66.07407407407408,0)" xlink:href="#ay"/><use transform="matrix(0.04938271604938272,0,0,0.04938271604938272,75.95061728395062,0)" xlink:href="#az"/></g><path d="M233-177c-1 41-23 64-60 70L243 0h-38l-65-103H63V0H30v-248c88 3 205-21 203 71zM63-129c60-2 137 13 137-47 0-61-80-42-137-45v92" id="aA"/><path d="M141-36C126-15 110 5 73 4 37 3 15-17 15-53c-1-64 63-63 125-63 3-35-9-54-41-54-24 1-41 7-42 31l-33-3c5-37 33-52 76-52 45 0 72 20 72 64v82c-1 20 7 32 28 27v20c-31 9-61-2-59-35zM48-53c0 20 12 33 32 33 41-3 63-29 60-74-43 2-92-5-92 41" id="aB"/><path d="M96-169c-40 0-48 33-48 73s9 75 48 75c24 0 41-14 43-38l32 2c-6 37-31 61-74 61-59 0-76-41-82-99-10-93 101-131 147-64 4 7 5 14 7 22l-32 3c-4-21-16-35-41-35" id="aC"/><path d="M106-169C34-169 62-67 57 0H25v-261h32l-1 103c12-21 28-36 61-36 89 0 53 116 60 194h-32v-121c2-32-8-49-39-48" id="aD"/><g id="b"><use transform="matrix(0.04938271604938272,0,0,0.04938271604938272,0,0)" xlink:href="#aA"/><use transform="matrix(0.04938271604938272,0,0,0.04938271604938272,12.790123456790125,0)" xlink:href="#ay"/><use transform="matrix(0.04938271604938272,0,0,0.04938271604938272,22.66666666666667,0)" xlink:href="#av"/><use transform="matrix(0.04938271604938272,0,0,0.04938271604938272,31.555555555555557,0)" xlink:href="#ay"/><use transform="matrix(0.04938271604938272,0,0,0.04938271604938272,41.4320987654321,0)" xlink:href="#aB"/><use transform="matrix(0.04938271604938272,0,0,0.04938271604938272,51.308641975308646,0)" xlink:href="#az"/><use transform="matrix(0.04938271604938272,0,0,0.04938271604938272,57.18518518518519,0)" xlink:href="#aC"/><use transform="matrix(0.04938271604938272,0,0,0.04938271604938272,66.07407407407408,0)" xlink:href="#aD"/></g><path d="M234-2c-28 10-62 0-77-18C117 19 8 12 13-65c3-43 29-61 60-76-25-40-17-114 47-108 35 3 59 15 59 50 0 44-40 53-71 69 14 26 32 50 51 72 14-21 24-43 30-72l26 8c-9 33-21 57-38 82 13 13 33 22 57 15v23zM97-151c25-10 52-18 56-48-1-18-13-29-33-29-42 0-39 50-23 77zM42-66c-3 51 71 58 98 28-20-24-41-51-56-80-23 10-40 24-42 52" id="aE"/><use transform="matrix(0.04938271604938272,0,0,0.04938271604938272,0,0)" xlink:href="#aE" id="c"/><path d="M240 0l2-218c-23 76-54 145-80 218h-23L58-218 59 0H30v-248h44l77 211c21-75 51-140 76-211h43V0h-30" id="aF"/><path d="M115-194c55 1 70 41 70 98S169 2 115 4C84 4 66-9 55-30l1 105H24l-1-265h31l2 30c10-21 28-34 59-34zm-8 174c40 0 45-34 45-75s-6-73-45-74c-42 0-51 32-51 76 0 43 10 73 51 73" id="aG"/><path d="M24-231v-30h32v30H24zM24 0v-190h32V0H24" id="aH"/><path d="M177-190C167-65 218 103 67 71c-23-6-38-20-44-43l32-5c15 47 100 32 89-28v-30C133-14 115 1 83 1 29 1 15-40 15-95c0-56 16-97 71-98 29-1 48 16 59 35 1-10 0-23 2-32h30zM94-22c36 0 50-32 50-73 0-42-14-75-50-75-39 0-46 34-46 75s6 73 46 73" id="aI"/><g id="d"><use transform="matrix(0.04938271604938272,0,0,0.04938271604938272,0,0)" xlink:href="#aF"/><use transform="matrix(0.04938271604938272,0,0,0.04938271604938272,14.765432098765434,0)" xlink:href="#aB"/><use transform="matrix(0.04938271604938272,0,0,0.04938271604938272,24.641975308641978,0)" xlink:href="#aG"/><use transform="matrix(0.04938271604938272,0,0,0.04938271604938272,34.51851851851852,0)" xlink:href="#aG"/><use transform="matrix(0.04938271604938272,0,0,0.04938271604938272,44.39506172839506,0)" xlink:href="#aH"/><use transform="matrix(0.04938271604938272,0,0,0.04938271604938272,48.2962962962963,0)" xlink:href="#au"/><use transform="matrix(0.04938271604938272,0,0,0.04938271604938272,58.17283950617284,0)" xlink:href="#aI"/></g><path d="M59-47c-2 24 18 29 38 22v24C64 9 27 4 27-40v-127H5v-23h24l9-43h21v43h35v23H59v120" id="aJ"/><g id="e"><use transform="matrix(0.04938271604938272,0,0,0.04938271604938272,0,0)" xlink:href="#as"/><use transform="matrix(0.04938271604938272,0,0,0.04938271604938272,12.790123456790125,0)" xlink:href="#aw"/><use transform="matrix(0.04938271604938272,0,0,0.04938271604938272,22.66666666666667,0)" xlink:href="#av"/><use transform="matrix(0.04938271604938272,0,0,0.04938271604938272,31.555555555555557,0)" xlink:href="#aJ"/><use transform="matrix(0.04938271604938272,0,0,0.04938271604938272,36.49382716049384,0)" xlink:href="#at"/><use transform="matrix(0.04938271604938272,0,0,0.04938271604938272,46.37037037037038,0)" xlink:href="#ax"/><use transform="matrix(0.04938271604938272,0,0,0.04938271604938272,61.13580246913581,0)" xlink:href="#ay"/><use transform="matrix(0.04938271604938272,0,0,0.04938271604938272,71.01234567901236,0)" xlink:href="#az"/></g><path d="M30 0v-248h187v28H63v79h144v27H63v87h162V0H30" id="aK"/><path d="M141 0L90-78 38 0H4l68-98-65-92h35l48 74 47-74h35l-64 92 68 98h-35" id="aL"/><g id="f"><use transform="matrix(0.04938271604938272,0,0,0.04938271604938272,0,0)" xlink:href="#aK"/><use transform="matrix(0.04938271604938272,0,0,0.04938271604938272,11.851851851851853,0)" xlink:href="#aL"/><use transform="matrix(0.04938271604938272,0,0,0.04938271604938272,20.74074074074074,0)" xlink:href="#aG"/><use transform="matrix(0.04938271604938272,0,0,0.04938271604938272,30.617283950617285,0)" xlink:href="#ay"/><use transform="matrix(0.04938271604938272,0,0,0.04938271604938272,40.49382716049383,0)" xlink:href="#az"/><use transform="matrix(0.04938271604938272,0,0,0.04938271604938272,46.370370370370374,0)" xlink:href="#aH"/><use transform="matrix(0.04938271604938272,0,0,0.04938271604938272,50.27160493827161,0)" xlink:href="#ay"/><use transform="matrix(0.04938271604938272,0,0,0.04938271604938272,60.14814814814815,0)" xlink:href="#au"/><use transform="matrix(0.04938271604938272,0,0,0.04938271604938272,70.0246913580247,0)" xlink:href="#aC"/><use transform="matrix(0.04938271604938272,0,0,0.04938271604938272,78.91358024691358,0)" xlink:href="#ay"/></g><path d="M185-189c-5-48-123-54-124 2 14 75 158 14 163 119 3 78-121 87-175 55-17-10-28-26-33-46l33-7c5 56 141 63 141-1 0-78-155-14-162-118-5-82 145-84 179-34 5 7 8 16 11 25" id="aM"/><path d="M85-194c31 0 48 13 60 33l-1-100h32l1 261h-30c-2-10 0-23-3-31C134-8 116 4 85 4 32 4 16-35 15-94c0-66 23-100 70-100zm9 24c-40 0-46 34-46 75 0 40 6 74 45 74 42 0 51-32 51-76 0-42-9-74-50-73" id="aN"/><path d="M179-190L93 31C79 59 56 82 12 73V49c39 6 53-20 64-50L1-190h34L92-34l54-156h33" id="aO"/><g id="g"><use transform="matrix(0.04938271604938272,0,0,0.04938271604938272,0,0)" xlink:href="#aM"/><use transform="matrix(0.04938271604938272,0,0,0.04938271604938272,11.851851851851853,0)" xlink:href="#aJ"/><use transform="matrix(0.04938271604938272,0,0,0.04938271604938272,16.790123456790127,0)" xlink:href="#aw"/><use transform="matrix(0.04938271604938272,0,0,0.04938271604938272,26.666666666666668,0)" xlink:href="#aN"/><use transform="matrix(0.04938271604938272,0,0,0.04938271604938272,36.543209876543216,0)" xlink:href="#aO"/></g><use transform="matrix(0.04938271604938272,0,0,0.04938271604938272,0,0)" xlink:href="#aE" id="h"/><g id="i"><use transform="matrix(0.04938271604938272,0,0,0.04938271604938272,0,0)" xlink:href="#aM"/><use transform="matrix(0.04938271604938272,0,0,0.04938271604938272,11.851851851851853,0)" xlink:href="#aJ"/><use transform="matrix(0.04938271604938272,0,0,0.04938271604938272,16.790123456790127,0)" xlink:href="#az"/><use transform="matrix(0.04938271604938272,0,0,0.04938271604938272,22.66666666666667,0)" xlink:href="#aB"/><use transform="matrix(0.04938271604938272,0,0,0.04938271604938272,32.543209876543216,0)" xlink:href="#aJ"/><use transform="matrix(0.04938271604938272,0,0,0.04938271604938272,37.48148148148149,0)" xlink:href="#ay"/><use transform="matrix(0.04938271604938272,0,0,0.04938271604938272,47.35802469135803,0)" xlink:href="#aI"/><use transform="matrix(0.04938271604938272,0,0,0.04938271604938272,57.23456790123457,0)" xlink:href="#aO"/></g><path fill="#333" d="M143 4C61 4 22-44 18-125c-5-107 100-154 193-111 17 8 29 25 37 43l-32 9c-13-25-37-40-76-40-61 0-88 39-88 99 0 61 29 100 91 101 35 0 62-11 79-27v-45h-74v-28h105v86C228-13 192 4 143 4" id="aP"/><path fill="#333" d="M100-194c62-1 85 37 85 99 1 63-27 99-86 99S16-35 15-95c0-66 28-99 85-99zM99-20c44 1 53-31 53-75 0-43-8-75-51-75s-53 32-53 75 10 74 51 75" id="aQ"/><g id="j"><use transform="matrix(0.049382716049382706,0,0,0.049382716049382706,0,0)" xlink:href="#aP"/><use transform="matrix(0.049382716049382706,0,0,0.049382716049382706,13.827160493827158,0)" xlink:href="#aQ"/></g><path fill="#333" d="M59-47c-2 24 18 29 38 22v24C64 9 27 4 27-40v-127H5v-23h24l9-43h21v43h35v23H59v120" id="aR"/><g id="k"><use transform="matrix(0.049382716049382706,0,0,0.049382716049382706,0,0)" xlink:href="#aR"/><use transform="matrix(0.049382716049382706,0,0,0.049382716049382706,4.93827160493827,0)" xlink:href="#aQ"/></g><path fill="#333" d="M240 0l2-218c-23 76-54 145-80 218h-23L58-218 59 0H30v-248h44l77 211c21-75 51-140 76-211h43V0h-30" id="aS"/><path fill="#333" d="M141-36C126-15 110 5 73 4 37 3 15-17 15-53c-1-64 63-63 125-63 3-35-9-54-41-54-24 1-41 7-42 31l-33-3c5-37 33-52 76-52 45 0 72 20 72 64v82c-1 20 7 32 28 27v20c-31 9-61-2-59-35zM48-53c0 20 12 33 32 33 41-3 63-29 60-74-43 2-92-5-92 41" id="aT"/><path fill="#333" d="M114-163C36-179 61-72 57 0H25l-1-190h30c1 12-1 29 2 39 6-27 23-49 58-41v29" id="aU"/><path fill="#333" d="M143 0L79-87 56-68V0H24v-261h32v163l83-92h37l-77 82L181 0h-38" id="aV"/><path fill="#333" d="M100-194c63 0 86 42 84 106H49c0 40 14 67 53 68 26 1 43-12 49-29l28 8c-11 28-37 45-77 45C44 4 14-33 15-96c1-61 26-98 85-98zm52 81c6-60-76-77-97-28-3 7-6 17-6 28h103" id="aW"/><g id="l"><use transform="matrix(0.049382716049382706,0,0,0.049382716049382706,0,0)" xlink:href="#aS"/><use transform="matrix(0.049382716049382706,0,0,0.049382716049382706,14.765432098765428,0)" xlink:href="#aT"/><use transform="matrix(0.049382716049382706,0,0,0.049382716049382706,24.641975308641968,0)" xlink:href="#aU"/><use transform="matrix(0.049382716049382706,0,0,0.049382716049382706,30.51851851851851,0)" xlink:href="#aV"/><use transform="matrix(0.049382716049382706,0,0,0.049382716049382706,39.4074074074074,0)" xlink:href="#aW"/><use transform="matrix(0.049382716049382706,0,0,0.049382716049382706,49.283950617283935,0)" xlink:href="#aR"/></g><path fill="#333" d="M185-189c-5-48-123-54-124 2 14 75 158 14 163 119 3 78-121 87-175 55-17-10-28-26-33-46l33-7c5 56 141 63 141-1 0-78-155-14-162-118-5-82 145-84 179-34 5 7 8 16 11 25" id="aX"/><path fill="#333" d="M177-190C167-65 218 103 67 71c-23-6-38-20-44-43l32-5c15 47 100 32 89-28v-30C133-14 115 1 83 1 29 1 15-40 15-95c0-56 16-97 71-98 29-1 48 16 59 35 1-10 0-23 2-32h30zM94-22c36 0 50-32 50-73 0-42-14-75-50-75-39 0-46 34-46 75s6 73 46 73" id="aY"/><path fill="#333" d="M179-190L93 31C79 59 56 82 12 73V49c39 6 53-20 64-50L1-190h34L92-34l54-156h33" id="aZ"/><g id="m"><use transform="matrix(0.049382716049382706,0,0,0.049382716049382706,0,0)" xlink:href="#aX"/><use transform="matrix(0.049382716049382706,0,0,0.049382716049382706,11.85185185185185,0)" xlink:href="#aR"/><use transform="matrix(0.049382716049382706,0,0,0.049382716049382706,16.79012345679012,0)" xlink:href="#aU"/><use transform="matrix(0.049382716049382706,0,0,0.049382716049382706,22.66666666666666,0)" xlink:href="#aT"/><use transform="matrix(0.049382716049382706,0,0,0.049382716049382706,32.5432098765432,0)" xlink:href="#aR"/><use transform="matrix(0.049382716049382706,0,0,0.049382716049382706,37.481481481481474,0)" xlink:href="#aW"/><use transform="matrix(0.049382716049382706,0,0,0.049382716049382706,47.35802469135801,0)" xlink:href="#aY"/><use transform="matrix(0.049382716049382706,0,0,0.049382716049382706,57.234567901234556,0)" xlink:href="#aZ"/></g><path fill="#333" d="M160-131c35 5 61 23 61 61C221 17 115-2 30 0v-248c76 3 177-17 177 60 0 33-19 50-47 57zm-97-11c50-1 110 9 110-42 0-47-63-36-110-37v79zm0 115c55-2 124 14 124-45 0-56-70-42-124-44v89" id="ba"/><path fill="#333" d="M117-194c89-4 53 116 60 194h-32v-121c0-31-8-49-39-48C34-167 62-67 57 0H25l-1-190h30c1 10-1 24 2 32 11-22 29-35 61-36" id="bb"/><path fill="#333" d="M85-194c31 0 48 13 60 33l-1-100h32l1 261h-30c-2-10 0-23-3-31C134-8 116 4 85 4 32 4 16-35 15-94c0-66 23-100 70-100zm9 24c-40 0-46 34-46 75 0 40 6 74 45 74 42 0 51-32 51-76 0-42-9-74-50-73" id="bc"/><path fill="#333" d="M24-231v-30h32v30H24zM24 0v-190h32V0H24" id="bd"/><g id="n"><use transform="matrix(0.049382716049382706,0,0,0.049382716049382706,0,0)" xlink:href="#ba"/><use transform="matrix(0.049382716049382706,0,0,0.049382716049382706,11.85185185185185,0)" xlink:href="#aU"/><use transform="matrix(0.049382716049382706,0,0,0.049382716049382706,17.728395061728392,0)" xlink:href="#aT"/><use transform="matrix(0.049382716049382706,0,0,0.049382716049382706,27.604938271604933,0)" xlink:href="#bb"/><use transform="matrix(0.049382716049382706,0,0,0.049382716049382706,37.481481481481474,0)" xlink:href="#bc"/><use transform="matrix(0.049382716049382706,0,0,0.049382716049382706,47.35802469135801,0)" xlink:href="#bd"/><use transform="matrix(0.049382716049382706,0,0,0.049382716049382706,51.25925925925925,0)" xlink:href="#bb"/><use transform="matrix(0.049382716049382706,0,0,0.049382716049382706,61.13580246913578,0)" xlink:href="#aY"/></g><path fill="#333" d="M63-220v92h138v28H63V0H30v-248h175v28H63" id="be"/><path fill="#333" d="M210-169c-67 3-38 105-44 169h-31v-121c0-29-5-50-35-48C34-165 62-65 56 0H25l-1-190h30c1 10-1 24 2 32 10-44 99-50 107 0 11-21 27-35 58-36 85-2 47 119 55 194h-31v-121c0-29-5-49-35-48" id="bf"/><path fill="#333" d="M206 0h-36l-40-164L89 0H53L-1-190h32L70-26l43-164h34l41 164 42-164h31" id="bg"/><g id="o"><use transform="matrix(0.049382716049382706,0,0,0.049382716049382706,0,0)" xlink:href="#be"/><use transform="matrix(0.049382716049382706,0,0,0.049382716049382706,10.814814814814813,0)" xlink:href="#aU"/><use transform="matrix(0.049382716049382706,0,0,0.049382716049382706,16.691358024691354,0)" xlink:href="#aT"/><use transform="matrix(0.049382716049382706,0,0,0.049382716049382706,26.567901234567895,0)" xlink:href="#bf"/><use transform="matrix(0.049382716049382706,0,0,0.049382716049382706,41.33333333333332,0)" xlink:href="#aW"/><use transform="matrix(0.049382716049382706,0,0,0.049382716049382706,51.20987654320986,0)" xlink:href="#bg"/><use transform="matrix(0.049382716049382706,0,0,0.049382716049382706,63.99999999999998,0)" xlink:href="#aQ"/><use transform="matrix(0.049382716049382706,0,0,0.049382716049382706,73.87654320987652,0)" xlink:href="#aU"/><use transform="matrix(0.049382716049382706,0,0,0.049382716049382706,79.75308641975306,0)" xlink:href="#aV"/></g><path fill="#333" d="M30 0v-248h187v28H63v79h144v27H63v87h162V0H30" id="bh"/><path fill="#333" d="M135-143c-3-34-86-38-87 0 15 53 115 12 119 90S17 21 10-45l28-5c4 36 97 45 98 0-10-56-113-15-118-90-4-57 82-63 122-42 12 7 21 19 24 35" id="bi"/><path fill="#333" d="M115-194c53 0 69 39 70 98 0 66-23 100-70 100C84 3 66-7 56-30L54 0H23l1-261h32v101c10-23 28-34 59-34zm-8 174c40 0 45-34 45-75 0-40-5-75-45-74-42 0-51 32-51 76 0 43 10 73 51 73" id="bj"/><path fill="#333" d="M24 0v-261h32V0H24" id="bk"/><path fill="#333" d="M106-169C34-169 62-67 57 0H25v-261h32l-1 103c12-21 28-36 61-36 89 0 53 116 60 194h-32v-121c2-32-8-49-39-48" id="bl"/><g id="p"><use transform="matrix(0.049382716049382706,0,0,0.049382716049382706,0,0)" xlink:href="#bh"/><use transform="matrix(0.049382716049382706,0,0,0.049382716049382706,11.85185185185185,0)" xlink:href="#bi"/><use transform="matrix(0.049382716049382706,0,0,0.049382716049382706,20.740740740740737,0)" xlink:href="#aR"/><use transform="matrix(0.049382716049382706,0,0,0.049382716049382706,25.679012345679006,0)" xlink:href="#aT"/><use transform="matrix(0.049382716049382706,0,0,0.049382716049382706,35.55555555555554,0)" xlink:href="#bj"/><use transform="matrix(0.049382716049382706,0,0,0.049382716049382706,45.43209876543209,0)" xlink:href="#bk"/><use transform="matrix(0.049382716049382706,0,0,0.049382716049382706,49.33333333333332,0)" xlink:href="#bd"/><use transform="matrix(0.049382716049382706,0,0,0.049382716049382706,53.234567901234556,0)" xlink:href="#bi"/><use transform="matrix(0.049382716049382706,0,0,0.049382716049382706,62.12345679012344,0)" xlink:href="#bl"/><use transform="matrix(0.049382716049382706,0,0,0.049382716049382706,71.99999999999999,0)" xlink:href="#bf"/><use transform="matrix(0.049382716049382706,0,0,0.049382716049382706,86.76543209876542,0)" xlink:href="#aW"/><use transform="matrix(0.049382716049382706,0,0,0.049382716049382706,96.64197530864196,0)" xlink:href="#bb"/><use transform="matrix(0.049382716049382706,0,0,0.049382716049382706,106.51851851851849,0)" xlink:href="#aR"/></g><path fill="#fff" d="M67-125c0 53 21 87 73 88 37 1 54-22 65-47l45 17C233-25 199 4 140 4 58 4 20-42 15-125 8-235 124-281 211-232c18 10 29 29 36 50l-46 12c-8-25-30-41-62-41-52 0-71 34-72 86" id="bm"/><path fill="#fff" d="M110-194c64 0 96 36 96 99 0 64-35 99-97 99-61 0-95-36-95-99 0-62 34-99 96-99zm-1 164c35 0 45-28 45-65 0-40-10-65-43-65-34 0-45 26-45 65 0 36 10 65 43 65" id="bn"/><path fill="#fff" d="M135-194c87-1 58 113 63 194h-50c-7-57 23-157-34-157-59 0-34 97-39 157H25l-1-190h47c2 12-1 28 3 38 12-26 28-41 61-42" id="bo"/><path fill="#fff" d="M137-138c1-29-70-34-71-4 15 46 118 7 119 86 1 83-164 76-172 9l43-7c4 19 20 25 44 25 33 8 57-30 24-41C81-84 22-81 20-136c-2-80 154-74 161-7" id="bp"/><path fill="#fff" d="M85 4C-2 5 27-109 22-190h50c7 57-23 150 33 157 60-5 35-97 40-157h50l1 190h-47c-2-12 1-28-3-38-12 25-28 42-61 42" id="bq"/><path fill="#fff" d="M220-157c-53 9-28 100-34 157h-49v-107c1-27-5-49-29-50C55-147 81-57 75 0H25l-1-190h47c2 12-1 28 3 38 10-53 101-56 108 0 13-22 24-43 59-42 82 1 51 116 57 194h-49v-107c-1-25-5-48-29-50" id="br"/><path fill="#fff" d="M185-48c-13 30-37 53-82 52C43 2 14-33 14-96s30-98 90-98c62 0 83 45 84 108H66c0 31 8 55 39 56 18 0 30-7 34-22zm-45-69c5-46-57-63-70-21-2 6-4 13-4 21h74" id="bs"/><path fill="#fff" d="M135-150c-39-12-60 13-60 57V0H25l-1-190h47c2 13-1 29 3 40 6-28 27-53 61-41v41" id="bt"/><g id="q"><use transform="matrix(0.04320987654320987,0,0,0.04320987654320987,0,0)" xlink:href="#bm"/><use transform="matrix(0.04320987654320987,0,0,0.04320987654320987,11.191358024691356,0)" xlink:href="#bn"/><use transform="matrix(0.04320987654320987,0,0,0.04320987654320987,20.654320987654316,0)" xlink:href="#bo"/><use transform="matrix(0.04320987654320987,0,0,0.04320987654320987,30.117283950617278,0)" xlink:href="#bp"/><use transform="matrix(0.04320987654320987,0,0,0.04320987654320987,38.75925925925925,0)" xlink:href="#bq"/><use transform="matrix(0.04320987654320987,0,0,0.04320987654320987,48.222222222222214,0)" xlink:href="#br"/><use transform="matrix(0.04320987654320987,0,0,0.04320987654320987,62.04938271604937,0)" xlink:href="#bs"/><use transform="matrix(0.04320987654320987,0,0,0.04320987654320987,70.69135802469134,0)" xlink:href="#bt"/></g><path fill="#fff" d="M24 0v-248h52V0H24" id="bu"/><path fill="#fff" d="M140-251c80 0 125 45 125 126 0 70-33 111-92 124 6 28 34 38 68 31l-1 36C177 83 129 55 120 2 51-6 15-50 15-125c0-81 44-126 125-126zm-1 214c52 0 73-35 73-88 0-50-21-86-72-86-52 0-73 35-73 86s22 88 72 88" id="bv"/><g id="r"><use transform="matrix(0.04320987654320987,0,0,0.04320987654320987,0,0)" xlink:href="#bu"/><use transform="matrix(0.04320987654320987,0,0,0.04320987654320987,4.320987654320986,0)" xlink:href="#bv"/></g><path fill="#fff" d="M230 0l2-204L168 0h-37L68-204 70 0H24v-248h70l56 185 57-185h69V0h-46" id="bw"/><path fill="#fff" d="M133-34C117-15 103 5 69 4 32 3 11-16 11-54c-1-60 55-63 116-61 1-26-3-47-28-47-18 1-26 9-28 27l-52-2c7-38 36-58 82-57s74 22 75 68l1 82c-1 14 12 18 25 15v27c-30 8-71 5-69-32zm-48 3c29 0 43-24 42-57-32 0-66-3-65 30 0 17 8 27 23 27" id="bx"/><path fill="#fff" d="M147 0L96-86 75-71V0H25v-261h50v150l67-79h53l-66 74L201 0h-54" id="by"/><path fill="#fff" d="M115-3C79 11 28 4 28-45v-112H4v-33h27l15-45h31v45h36v33H77v99c-1 23 16 31 38 25v30" id="bz"/><path fill="#fff" d="M135-194c53 0 70 44 70 98 0 56-19 98-73 100-31 1-45-17-59-34 3 33 2 69 2 105H25l-1-265h48c2 10 0 23 3 31 11-24 29-35 60-35zM114-30c33 0 39-31 40-66 0-38-9-64-40-64-56 0-55 130 0 130" id="bA"/><path fill="#fff" d="M25 0v-261h50V0H25" id="bB"/><path fill="#fff" d="M190-63c-7 42-38 67-86 67-59 0-84-38-90-98-12-110 154-137 174-36l-49 2c-2-19-15-32-35-32-30 0-35 28-38 64-6 74 65 87 74 30" id="bC"/><g id="s"><use transform="matrix(0.04320987654320987,0,0,0.04320987654320987,0,0)" xlink:href="#bw"/><use transform="matrix(0.04320987654320987,0,0,0.04320987654320987,12.91975308641975,0)" xlink:href="#bx"/><use transform="matrix(0.04320987654320987,0,0,0.04320987654320987,21.56172839506172,0)" xlink:href="#bt"/><use transform="matrix(0.04320987654320987,0,0,0.04320987654320987,27.6111111111111,0)" xlink:href="#by"/><use transform="matrix(0.04320987654320987,0,0,0.04320987654320987,36.253086419753075,0)" xlink:href="#bs"/><use transform="matrix(0.04320987654320987,0,0,0.04320987654320987,44.89506172839505,0)" xlink:href="#bz"/><use transform="matrix(0.04320987654320987,0,0,0.04320987654320987,50.037037037037024,0)" xlink:href="#bA"/><use transform="matrix(0.04320987654320987,0,0,0.04320987654320987,59.499999999999986,0)" xlink:href="#bB"/><use transform="matrix(0.04320987654320987,0,0,0.04320987654320987,63.82098765432097,0)" xlink:href="#bx"/><use transform="matrix(0.04320987654320987,0,0,0.04320987654320987,72.46296296296295,0)" xlink:href="#bC"/><use transform="matrix(0.04320987654320987,0,0,0.04320987654320987,81.10493827160492,0)" xlink:href="#bs"/></g><path fill="#fff" d="M24-248c120-7 223 5 221 122C244-46 201 0 124 0H24v-248zM76-40c74 7 117-18 117-86 0-67-45-88-117-82v168" id="bD"/><g id="t"><use transform="matrix(0.04320987654320987,0,0,0.04320987654320987,0,0)" xlink:href="#bD"/><use transform="matrix(0.04320987654320987,0,0,0.04320987654320987,11.191358024691356,0)" xlink:href="#bx"/><use transform="matrix(0.04320987654320987,0,0,0.04320987654320987,19.83333333333333,0)" xlink:href="#bz"/><use transform="matrix(0.04320987654320987,0,0,0.04320987654320987,24.975308641975303,0)" xlink:href="#bx"/></g><path fill="#fff" d="M168-19C124 19 11 11 16-68c3-43 29-60 59-75-25-44-12-111 53-106 37 3 64 15 64 52 0 43-40 52-69 68 12 22 27 41 43 59 14-19 21-38 28-64l37 13c-8 29-19 52-34 74 12 10 32 16 52 10v35c-28 11-65-2-81-17zm-58-139c19-9 43-14 43-39 0-14-10-22-25-22-34 0-33 41-18 61zM60-68c-3 40 55 47 79 25-18-20-34-42-48-67-18 8-30 20-31 42" id="bE"/><use transform="matrix(0.04320987654320987,0,0,0.04320987654320987,0,0)" xlink:href="#bE" id="u"/><path fill="#fff" d="M240-174c0 40-23 61-54 70L253 0h-59l-57-94H76V0H24v-248c93 4 217-23 216 74zM76-134c48-2 112 12 112-38 0-48-66-32-112-35v73" id="bF"/><path fill="#fff" d="M114-157C55-157 80-60 75 0H25v-261h50l-1 109c12-26 28-41 61-42 86-1 58 113 63 194h-50c-7-57 23-157-34-157" id="bG"/><g id="v"><use transform="matrix(0.04320987654320987,0,0,0.04320987654320987,0,0)" xlink:href="#bF"/><use transform="matrix(0.04320987654320987,0,0,0.04320987654320987,11.191358024691356,0)" xlink:href="#bs"/><use transform="matrix(0.04320987654320987,0,0,0.04320987654320987,19.83333333333333,0)" xlink:href="#bp"/><use transform="matrix(0.04320987654320987,0,0,0.04320987654320987,28.475308641975303,0)" xlink:href="#bs"/><use transform="matrix(0.04320987654320987,0,0,0.04320987654320987,37.11728395061728,0)" xlink:href="#bx"/><use transform="matrix(0.04320987654320987,0,0,0.04320987654320987,45.75925925925925,0)" xlink:href="#bt"/><use transform="matrix(0.04320987654320987,0,0,0.04320987654320987,51.80864197530863,0)" xlink:href="#bC"/><use transform="matrix(0.04320987654320987,0,0,0.04320987654320987,60.450617283950606,0)" xlink:href="#bG"/></g><path fill="#fff" d="M24-248c93 1 206-16 204 79-1 75-69 88-152 82V0H24v-248zm52 121c47 0 100 7 100-41 0-47-54-39-100-39v80" id="bH"/><path fill="#fff" d="M88-194c31-1 46 15 58 34l-1-101h50l1 261h-48c-2-10 0-23-3-31C134-8 116 4 84 4 32 4 16-41 15-95c0-56 19-97 73-99zm17 164c33 0 40-30 41-66 1-37-9-64-41-64s-38 30-39 65c0 43 13 65 39 65" id="bI"/><path fill="#fff" d="M4 7l51-268h42L46 7H4" id="bJ"/><path fill="#fff" d="M128 0H69L1-190h53L99-40l48-150h52" id="bK"/><path fill="#fff" d="M25-224v-37h50v37H25zM25 0v-190h50V0H25" id="bL"/><g id="w"><use transform="matrix(0.04320987654320987,0,0,0.04320987654320987,0,0)" xlink:href="#bH"/><use transform="matrix(0.04320987654320987,0,0,0.04320987654320987,10.370370370370368,0)" xlink:href="#bt"/><use transform="matrix(0.04320987654320987,0,0,0.04320987654320987,16.41975308641975,0)" xlink:href="#bn"/><use transform="matrix(0.04320987654320987,0,0,0.04320987654320987,25.882716049382704,0)" xlink:href="#bI"/><use transform="matrix(0.04320987654320987,0,0,0.04320987654320987,35.34567901234567,0)" xlink:href="#bq"/><use transform="matrix(0.04320987654320987,0,0,0.04320987654320987,44.80864197530863,0)" xlink:href="#bC"/><use transform="matrix(0.04320987654320987,0,0,0.04320987654320987,53.450617283950606,0)" xlink:href="#bz"/><use transform="matrix(0.04320987654320987,0,0,0.04320987654320987,58.59259259259258,0)" xlink:href="#bJ"/><use transform="matrix(0.04320987654320987,0,0,0.04320987654320987,62.91358024691357,0)" xlink:href="#bp"/><use transform="matrix(0.04320987654320987,0,0,0.04320987654320987,71.55555555555554,0)" xlink:href="#bs"/><use transform="matrix(0.04320987654320987,0,0,0.04320987654320987,80.19753086419752,0)" xlink:href="#bt"/><use transform="matrix(0.04320987654320987,0,0,0.04320987654320987,86.2469135802469,0)" xlink:href="#bK"/><use transform="matrix(0.04320987654320987,0,0,0.04320987654320987,94.88888888888887,0)" xlink:href="#bL"/><use transform="matrix(0.04320987654320987,0,0,0.04320987654320987,99.20987654320986,0)" xlink:href="#bC"/><use transform="matrix(0.04320987654320987,0,0,0.04320987654320987,107.85185185185183,0)" xlink:href="#bs"/></g><path fill="#fff" d="M195-6C206 82 75 100 31 46c-4-6-6-13-8-21l49-6c3 16 16 24 34 25 40 0 42-37 40-79-11 22-30 35-61 35-53 0-70-43-70-97 0-56 18-96 73-97 30 0 46 14 59 34l2-30h47zm-90-29c32 0 41-27 41-63 0-35-9-62-40-62-32 0-39 29-40 63 0 36 9 62 39 62" id="bM"/><path fill="#fff" d="M123 10C108 53 80 86 19 72V37c35 8 53-11 59-39L3-190h52l48 148c12-52 28-100 44-148h51" id="bN"/><g id="x"><use transform="matrix(0.04320987654320987,0,0,0.04320987654320987,0,0)" xlink:href="#bC"/><use transform="matrix(0.04320987654320987,0,0,0.04320987654320987,8.641975308641973,0)" xlink:href="#bx"/><use transform="matrix(0.04320987654320987,0,0,0.04320987654320987,17.283950617283946,0)" xlink:href="#bz"/><use transform="matrix(0.04320987654320987,0,0,0.04320987654320987,22.42592592592592,0)" xlink:href="#bs"/><use transform="matrix(0.04320987654320987,0,0,0.04320987654320987,31.06790123456789,0)" xlink:href="#bM"/><use transform="matrix(0.04320987654320987,0,0,0.04320987654320987,40.53086419753085,0)" xlink:href="#bn"/><use transform="matrix(0.04320987654320987,0,0,0.04320987654320987,49.993827160493815,0)" xlink:href="#bz"/><use transform="matrix(0.04320987654320987,0,0,0.04320987654320987,55.13580246913579,0)" xlink:href="#bN"/></g><g id="y"><use transform="matrix(0.04320987654320987,0,0,0.04320987654320987,0,0)" xlink:href="#bD"/><use transform="matrix(0.04320987654320987,0,0,0.04320987654320987,11.191358024691356,0)" xlink:href="#bx"/><use transform="matrix(0.04320987654320987,0,0,0.04320987654320987,19.83333333333333,0)" xlink:href="#bz"/><use transform="matrix(0.04320987654320987,0,0,0.04320987654320987,24.975308641975303,0)" xlink:href="#bx"/></g><path fill="#fff" d="M182-130c37 4 62 22 62 59C244 23 116-4 24 0v-248c84 5 203-23 205 63 0 31-19 50-47 55zM76-148c40-3 101 13 101-30 0-44-60-28-101-31v61zm0 110c48-3 116 14 116-37 0-48-69-32-116-35v72" id="bO"/><g id="z"><use transform="matrix(0.04320987654320987,0,0,0.04320987654320987,0,0)" xlink:href="#bO"/><use transform="matrix(0.04320987654320987,0,0,0.04320987654320987,11.191358024691356,0)" xlink:href="#bt"/><use transform="matrix(0.04320987654320987,0,0,0.04320987654320987,17.240740740740737,0)" xlink:href="#bx"/><use transform="matrix(0.04320987654320987,0,0,0.04320987654320987,25.882716049382704,0)" xlink:href="#bo"/><use transform="matrix(0.04320987654320987,0,0,0.04320987654320987,35.34567901234567,0)" xlink:href="#bI"/></g><g id="A"><use transform="matrix(0.04320987654320987,0,0,0.04320987654320987,0,0)" xlink:href="#bu"/><use transform="matrix(0.04320987654320987,0,0,0.04320987654320987,4.320987654320986,0)" xlink:href="#bI"/><use transform="matrix(0.04320987654320987,0,0,0.04320987654320987,13.783950617283946,0)" xlink:href="#bs"/><use transform="matrix(0.04320987654320987,0,0,0.04320987654320987,22.425925925925917,0)" xlink:href="#bo"/><use transform="matrix(0.04320987654320987,0,0,0.04320987654320987,31.88888888888888,0)" xlink:href="#bz"/><use transform="matrix(0.04320987654320987,0,0,0.04320987654320987,37.03086419753085,0)" xlink:href="#bL"/><use transform="matrix(0.04320987654320987,0,0,0.04320987654320987,41.35185185185184,0)" xlink:href="#bz"/><use transform="matrix(0.04320987654320987,0,0,0.04320987654320987,46.493827160493815,0)" xlink:href="#bN"/></g><g id="B"><use transform="matrix(0.04320987654320987,0,0,0.04320987654320987,0,0)" xlink:href="#bO"/><use transform="matrix(0.04320987654320987,0,0,0.04320987654320987,11.191358024691356,0)" xlink:href="#bt"/><use transform="matrix(0.04320987654320987,0,0,0.04320987654320987,17.240740740740737,0)" xlink:href="#bx"/><use transform="matrix(0.04320987654320987,0,0,0.04320987654320987,25.882716049382704,0)" xlink:href="#bo"/><use transform="matrix(0.04320987654320987,0,0,0.04320987654320987,35.34567901234567,0)" xlink:href="#bI"/></g><g id="C"><use transform="matrix(0.04320987654320987,0,0,0.04320987654320987,0,0)" xlink:href="#bm"/><use transform="matrix(0.04320987654320987,0,0,0.04320987654320987,11.191358024691356,0)" xlink:href="#bn"/><use transform="matrix(0.04320987654320987,0,0,0.04320987654320987,20.654320987654316,0)" xlink:href="#br"/><use transform="matrix(0.04320987654320987,0,0,0.04320987654320987,34.481481481481474,0)" xlink:href="#br"/><use transform="matrix(0.04320987654320987,0,0,0.04320987654320987,48.30864197530863,0)" xlink:href="#bq"/><use transform="matrix(0.04320987654320987,0,0,0.04320987654320987,57.771604938271594,0)" xlink:href="#bo"/><use transform="matrix(0.04320987654320987,0,0,0.04320987654320987,67.23456790123456,0)" xlink:href="#bL"/><use transform="matrix(0.04320987654320987,0,0,0.04320987654320987,71.55555555555554,0)" xlink:href="#bC"/><use transform="matrix(0.04320987654320987,0,0,0.04320987654320987,80.19753086419752,0)" xlink:href="#bx"/><use transform="matrix(0.04320987654320987,0,0,0.04320987654320987,88.83950617283949,0)" xlink:href="#bz"/><use transform="matrix(0.04320987654320987,0,0,0.04320987654320987,93.98148148148147,0)" xlink:href="#bL"/><use transform="matrix(0.04320987654320987,0,0,0.04320987654320987,98.30246913580245,0)" xlink:href="#bn"/><use transform="matrix(0.04320987654320987,0,0,0.04320987654320987,107.7654320987654,0)" xlink:href="#bo"/></g><path fill="#fff" d="M199 0l-22-63H83L61 0H9l90-248h61L250 0h-51zm-33-102l-36-108c-10 38-24 72-36 108h72" id="bP"/><g id="D"><use transform="matrix(0.03703703703703702,0,0,0.03703703703703702,0,0)" xlink:href="#bP"/><use transform="matrix(0.03703703703703702,0,0,0.03703703703703702,9.592592592592588,0)" xlink:href="#bq"/><use transform="matrix(0.03703703703703702,0,0,0.03703703703703702,17.703703703703695,0)" xlink:href="#bI"/><use transform="matrix(0.03703703703703702,0,0,0.03703703703703702,25.814814814814802,0)" xlink:href="#bL"/><use transform="matrix(0.03703703703703702,0,0,0.03703703703703702,29.518518518518505,0)" xlink:href="#bs"/><use transform="matrix(0.03703703703703702,0,0,0.03703703703703702,36.92592592592591,0)" xlink:href="#bo"/><use transform="matrix(0.03703703703703702,0,0,0.03703703703703702,45.03703703703702,0)" xlink:href="#bC"/><use transform="matrix(0.03703703703703702,0,0,0.03703703703703702,52.44444444444442,0)" xlink:href="#bs"/></g><g id="E"><use transform="matrix(0.03703703703703702,0,0,0.03703703703703702,0,0)" xlink:href="#bD"/><use transform="matrix(0.03703703703703702,0,0,0.03703703703703702,9.592592592592588,0)" xlink:href="#bs"/><use transform="matrix(0.03703703703703702,0,0,0.03703703703703702,16.999999999999993,0)" xlink:href="#bA"/><use transform="matrix(0.03703703703703702,0,0,0.03703703703703702,25.1111111111111,0)" xlink:href="#bz"/><use transform="matrix(0.03703703703703702,0,0,0.03703703703703702,29.518518518518505,0)" xlink:href="#bG"/></g><g id="G"><use transform="matrix(0.03703703703703702,0,0,0.03703703703703702,0,0)" xlink:href="#bu"/><use transform="matrix(0.03703703703703702,0,0,0.03703703703703702,3.703703703703702,0)" xlink:href="#bo"/><use transform="matrix(0.03703703703703702,0,0,0.03703703703703702,11.81481481481481,0)" xlink:href="#bz"/><use transform="matrix(0.03703703703703702,0,0,0.03703703703703702,16.222222222222214,0)" xlink:href="#bs"/><use transform="matrix(0.03703703703703702,0,0,0.03703703703703702,23.62962962962962,0)" xlink:href="#bM"/><use transform="matrix(0.03703703703703702,0,0,0.03703703703703702,31.740740740740726,0)" xlink:href="#bt"/><use transform="matrix(0.03703703703703702,0,0,0.03703703703703702,36.92592592592591,0)" xlink:href="#bx"/><use transform="matrix(0.03703703703703702,0,0,0.03703703703703702,44.333333333333314,0)" xlink:href="#bz"/><use transform="matrix(0.03703703703703702,0,0,0.03703703703703702,48.74074074074072,0)" xlink:href="#bL"/><use transform="matrix(0.03703703703703702,0,0,0.03703703703703702,52.44444444444442,0)" xlink:href="#bn"/><use transform="matrix(0.03703703703703702,0,0,0.03703703703703702,60.55555555555553,0)" xlink:href="#bo"/></g><path fill="#fff" d="M169-182c-1-43-94-46-97-3 18 66 151 10 154 114 3 95-165 93-204 36-6-8-10-19-12-30l50-8c3 46 112 56 116 5-17-69-150-10-154-114-4-87 153-88 188-35 5 8 8 18 10 28" id="bQ"/><g id="H"><use transform="matrix(0.03703703703703702,0,0,0.03703703703703702,0,0)" xlink:href="#bQ"/><use transform="matrix(0.03703703703703702,0,0,0.03703703703703702,8.888888888888886,0)" xlink:href="#bs"/><use transform="matrix(0.03703703703703702,0,0,0.03703703703703702,16.29629629629629,0)" xlink:href="#bM"/><use transform="matrix(0.03703703703703702,0,0,0.03703703703703702,24.407407407407398,0)" xlink:href="#bt"/><use transform="matrix(0.03703703703703702,0,0,0.03703703703703702,29.59259259259258,0)" xlink:href="#bs"/><use transform="matrix(0.03703703703703702,0,0,0.03703703703703702,36.999999999999986,0)" xlink:href="#bM"/><use transform="matrix(0.03703703703703702,0,0,0.03703703703703702,45.11111111111109,0)" xlink:href="#bx"/><use transform="matrix(0.03703703703703702,0,0,0.03703703703703702,52.5185185185185,0)" xlink:href="#bz"/><use transform="matrix(0.03703703703703702,0,0,0.03703703703703702,56.9259259259259,0)" xlink:href="#bL"/><use transform="matrix(0.03703703703703702,0,0,0.03703703703703702,60.629629629629605,0)" xlink:href="#bn"/><use transform="matrix(0.03703703703703702,0,0,0.03703703703703702,68.7407407407407,0)" xlink:href="#bo"/></g><g id="I"><use transform="matrix(0.03703703703703702,0,0,0.03703703703703702,0,0)" xlink:href="#bm"/><use transform="matrix(0.03703703703703702,0,0,0.03703703703703702,9.592592592592588,0)" xlink:href="#bn"/><use transform="matrix(0.03703703703703702,0,0,0.03703703703703702,17.703703703703695,0)" xlink:href="#bo"/><use transform="matrix(0.03703703703703702,0,0,0.03703703703703702,25.814814814814802,0)" xlink:href="#bp"/><use transform="matrix(0.03703703703703702,0,0,0.03703703703703702,33.22222222222221,0)" xlink:href="#bq"/><use transform="matrix(0.03703703703703702,0,0,0.03703703703703702,41.333333333333314,0)" xlink:href="#br"/><use transform="matrix(0.03703703703703702,0,0,0.03703703703703702,53.18518518518516,0)" xlink:href="#bA"/><use transform="matrix(0.03703703703703702,0,0,0.03703703703703702,61.29629629629627,0)" xlink:href="#bz"/><use transform="matrix(0.03703703703703702,0,0,0.03703703703703702,65.70370370370368,0)" xlink:href="#bL"/><use transform="matrix(0.03703703703703702,0,0,0.03703703703703702,69.40740740740738,0)" xlink:href="#bn"/><use transform="matrix(0.03703703703703702,0,0,0.03703703703703702,77.51851851851846,0)" xlink:href="#bo"/></g><g id="J"><use transform="matrix(0.03703703703703702,0,0,0.03703703703703702,0,0)" xlink:href="#bH"/><use transform="matrix(0.03703703703703702,0,0,0.03703703703703702,8.888888888888886,0)" xlink:href="#bx"/><use transform="matrix(0.03703703703703702,0,0,0.03703703703703702,16.29629629629629,0)" xlink:href="#bz"/><use transform="matrix(0.03703703703703702,0,0,0.03703703703703702,20.703703703703695,0)" xlink:href="#bz"/><use transform="matrix(0.03703703703703702,0,0,0.03703703703703702,25.1111111111111,0)" xlink:href="#bs"/><use transform="matrix(0.03703703703703702,0,0,0.03703703703703702,32.518518518518505,0)" xlink:href="#bt"/><use transform="matrix(0.03703703703703702,0,0,0.03703703703703702,37.70370370370369,0)" xlink:href="#bo"/><use transform="matrix(0.03703703703703702,0,0,0.03703703703703702,45.814814814814795,0)" xlink:href="#bp"/></g><g id="K"><use transform="matrix(0.03703703703703702,0,0,0.03703703703703702,0,0)" xlink:href="#bP"/><use transform="matrix(0.03703703703703702,0,0,0.03703703703703702,9.592592592592588,0)" xlink:href="#bz"/><use transform="matrix(0.03703703703703702,0,0,0.03703703703703702,13.999999999999991,0)" xlink:href="#bz"/><use transform="matrix(0.03703703703703702,0,0,0.03703703703703702,18.407407407407398,0)" xlink:href="#bs"/><use transform="matrix(0.03703703703703702,0,0,0.03703703703703702,25.814814814814802,0)" xlink:href="#bo"/><use transform="matrix(0.03703703703703702,0,0,0.03703703703703702,33.92592592592591,0)" xlink:href="#bz"/><use transform="matrix(0.03703703703703702,0,0,0.03703703703703702,38.333333333333314,0)" xlink:href="#bL"/><use transform="matrix(0.03703703703703702,0,0,0.03703703703703702,42.03703703703702,0)" xlink:href="#bn"/><use transform="matrix(0.03703703703703702,0,0,0.03703703703703702,50.148148148148124,0)" xlink:href="#bo"/></g><g id="L"><use transform="matrix(0.03703703703703702,0,0,0.03703703703703702,0,0)" xlink:href="#bO"/><use transform="matrix(0.03703703703703702,0,0,0.03703703703703702,9.592592592592588,0)" xlink:href="#bs"/><use transform="matrix(0.03703703703703702,0,0,0.03703703703703702,16.999999999999993,0)" xlink:href="#bG"/><use transform="matrix(0.03703703703703702,0,0,0.03703703703703702,25.1111111111111,0)" xlink:href="#bx"/><use transform="matrix(0.03703703703703702,0,0,0.03703703703703702,32.518518518518505,0)" xlink:href="#bK"/><use transform="matrix(0.03703703703703702,0,0,0.03703703703703702,39.92592592592591,0)" xlink:href="#bL"/><use transform="matrix(0.03703703703703702,0,0,0.03703703703703702,43.62962962962961,0)" xlink:href="#bn"/><use transform="matrix(0.03703703703703702,0,0,0.03703703703703702,51.74074074074072,0)" xlink:href="#bt"/></g><g id="M"><use transform="matrix(0.03703703703703702,0,0,0.03703703703703702,0,0)" xlink:href="#bD"/><use transform="matrix(0.03703703703703702,0,0,0.03703703703703702,9.592592592592588,0)" xlink:href="#bs"/><use transform="matrix(0.03703703703703702,0,0,0.03703703703703702,16.999999999999993,0)" xlink:href="#bK"/><use transform="matrix(0.03703703703703702,0,0,0.03703703703703702,24.407407407407398,0)" xlink:href="#bs"/><use transform="matrix(0.03703703703703702,0,0,0.03703703703703702,31.814814814814802,0)" xlink:href="#bB"/><use transform="matrix(0.03703703703703702,0,0,0.03703703703703702,35.518518518518505,0)" xlink:href="#bn"/><use transform="matrix(0.03703703703703702,0,0,0.03703703703703702,43.62962962962961,0)" xlink:href="#bA"/><use transform="matrix(0.03703703703703702,0,0,0.03703703703703702,51.74074074074072,0)" xlink:href="#bs"/><use transform="matrix(0.03703703703703702,0,0,0.03703703703703702,59.148148148148124,0)" xlink:href="#br"/><use transform="matrix(0.03703703703703702,0,0,0.03703703703703702,70.99999999999997,0)" xlink:href="#bs"/><use transform="matrix(0.03703703703703702,0,0,0.03703703703703702,78.40740740740738,0)" xlink:href="#bo"/><use transform="matrix(0.03703703703703702,0,0,0.03703703703703702,86.51851851851848,0)" xlink:href="#bz"/></g><g id="N"><use transform="matrix(0.03703703703703702,0,0,0.03703703703703702,0,0)" xlink:href="#bw"/><use transform="matrix(0.03703703703703702,0,0,0.03703703703703702,11.074074074074069,0)" xlink:href="#bs"/><use transform="matrix(0.03703703703703702,0,0,0.03703703703703702,18.481481481481474,0)" xlink:href="#bz"/><use transform="matrix(0.03703703703703702,0,0,0.03703703703703702,22.88888888888888,0)" xlink:href="#bt"/><use transform="matrix(0.03703703703703702,0,0,0.03703703703703702,28.074074074074062,0)" xlink:href="#bL"/><use transform="matrix(0.03703703703703702,0,0,0.03703703703703702,31.777777777777764,0)" xlink:href="#bC"/><use transform="matrix(0.03703703703703702,0,0,0.03703703703703702,39.18518518518517,0)" xlink:href="#bp"/></g><g id="O"><use transform="matrix(0.03703703703703702,0,0,0.03703703703703702,0,0)" xlink:href="#bm"/><use transform="matrix(0.03703703703703702,0,0,0.03703703703703702,9.592592592592588,0)" xlink:href="#bn"/><use transform="matrix(0.03703703703703702,0,0,0.03703703703703702,17.703703703703695,0)" xlink:href="#bo"/><use transform="matrix(0.03703703703703702,0,0,0.03703703703703702,25.814814814814802,0)" xlink:href="#bp"/><use transform="matrix(0.03703703703703702,0,0,0.03703703703703702,33.22222222222221,0)" xlink:href="#bq"/><use transform="matrix(0.03703703703703702,0,0,0.03703703703703702,41.333333333333314,0)" xlink:href="#br"/><use transform="matrix(0.03703703703703702,0,0,0.03703703703703702,53.18518518518516,0)" xlink:href="#bs"/><use transform="matrix(0.03703703703703702,0,0,0.03703703703703702,60.59259259259257,0)" xlink:href="#bt"/></g><g id="P"><use transform="matrix(0.03703703703703702,0,0,0.03703703703703702,0,0)" xlink:href="#bP"/><use transform="matrix(0.03703703703703702,0,0,0.03703703703703702,9.592592592592588,0)" xlink:href="#bt"/><use transform="matrix(0.03703703703703702,0,0,0.03703703703703702,14.777777777777771,0)" xlink:href="#bC"/><use transform="matrix(0.03703703703703702,0,0,0.03703703703703702,22.185185185185176,0)" xlink:href="#bG"/><use transform="matrix(0.03703703703703702,0,0,0.03703703703703702,30.296296296296283,0)" xlink:href="#bs"/><use transform="matrix(0.03703703703703702,0,0,0.03703703703703702,37.70370370370369,0)" xlink:href="#bz"/><use transform="matrix(0.03703703703703702,0,0,0.03703703703703702,42.11111111111109,0)" xlink:href="#bN"/><use transform="matrix(0.03703703703703702,0,0,0.03703703703703702,49.5185185185185,0)" xlink:href="#bA"/><use transform="matrix(0.03703703703703702,0,0,0.03703703703703702,57.629629629629605,0)" xlink:href="#bs"/></g><path fill="#fff" d="M121-226c-27-7-43 5-38 36h38v33H83V0H34v-157H6v-33h28c-9-59 32-81 87-68v32" id="bR"/><g id="Q"><use transform="matrix(0.03703703703703702,0,0,0.03703703703703702,0,0)" xlink:href="#bD"/><use transform="matrix(0.03703703703703702,0,0,0.03703703703703702,9.592592592592588,0)" xlink:href="#bs"/><use transform="matrix(0.03703703703703702,0,0,0.03703703703703702,16.999999999999993,0)" xlink:href="#bR"/><use transform="matrix(0.03703703703703702,0,0,0.03703703703703702,21.407407407407398,0)" xlink:href="#bL"/><use transform="matrix(0.03703703703703702,0,0,0.03703703703703702,25.1111111111111,0)" xlink:href="#bo"/><use transform="matrix(0.03703703703703702,0,0,0.03703703703703702,33.22222222222221,0)" xlink:href="#bL"/><use transform="matrix(0.03703703703703702,0,0,0.03703703703703702,36.92592592592591,0)" xlink:href="#bz"/><use transform="matrix(0.03703703703703702,0,0,0.03703703703703702,41.333333333333314,0)" xlink:href="#bL"/><use transform="matrix(0.03703703703703702,0,0,0.03703703703703702,45.03703703703702,0)" xlink:href="#bn"/><use transform="matrix(0.03703703703703702,0,0,0.03703703703703702,53.148148148148124,0)" xlink:href="#bo"/><use transform="matrix(0.03703703703703702,0,0,0.03703703703703702,61.25925925925923,0)" xlink:href="#bp"/></g><g id="R"><use transform="matrix(0.03703703703703702,0,0,0.03703703703703702,0,0)" xlink:href="#bH"/><use transform="matrix(0.03703703703703702,0,0,0.03703703703703702,8.888888888888886,0)" xlink:href="#bt"/><use transform="matrix(0.03703703703703702,0,0,0.03703703703703702,14.07407407407407,0)" xlink:href="#bL"/><use transform="matrix(0.03703703703703702,0,0,0.03703703703703702,17.77777777777777,0)" xlink:href="#br"/><use transform="matrix(0.03703703703703702,0,0,0.03703703703703702,29.629629629629623,0)" xlink:href="#bx"/><use transform="matrix(0.03703703703703702,0,0,0.03703703703703702,37.037037037037024,0)" xlink:href="#bt"/><use transform="matrix(0.03703703703703702,0,0,0.03703703703703702,42.22222222222221,0)" xlink:href="#bN"/></g><use transform="matrix(0.03703703703703702,0,0,0.03703703703703702,0,0)" xlink:href="#bE" id="S"/><g id="T"><use transform="matrix(0.03703703703703702,0,0,0.03703703703703702,0,0)" xlink:href="#bQ"/><use transform="matrix(0.03703703703703702,0,0,0.03703703703703702,8.888888888888886,0)" xlink:href="#bs"/><use transform="matrix(0.03703703703703702,0,0,0.03703703703703702,16.29629629629629,0)" xlink:href="#bC"/><use transform="matrix(0.03703703703703702,0,0,0.03703703703703702,23.703703703703695,0)" xlink:href="#bn"/><use transform="matrix(0.03703703703703702,0,0,0.03703703703703702,31.814814814814802,0)" xlink:href="#bo"/><use transform="matrix(0.03703703703703702,0,0,0.03703703703703702,39.92592592592591,0)" xlink:href="#bI"/><use transform="matrix(0.03703703703703702,0,0,0.03703703703703702,48.03703703703702,0)" xlink:href="#bx"/><use transform="matrix(0.03703703703703702,0,0,0.03703703703703702,55.44444444444442,0)" xlink:href="#bt"/><use transform="matrix(0.03703703703703702,0,0,0.03703703703703702,60.629629629629605,0)" xlink:href="#bN"/></g><g id="U"><use transform="matrix(0.03703703703703702,0,0,0.03703703703703702,0,0)" xlink:href="#bm"/><use transform="matrix(0.03703703703703702,0,0,0.03703703703703702,9.592592592592588,0)" xlink:href="#bn"/><use transform="matrix(0.03703703703703702,0,0,0.03703703703703702,17.703703703703695,0)" xlink:href="#bo"/><use transform="matrix(0.03703703703703702,0,0,0.03703703703703702,25.814814814814802,0)" xlink:href="#bp"/><use transform="matrix(0.03703703703703702,0,0,0.03703703703703702,33.22222222222221,0)" xlink:href="#bq"/><use transform="matrix(0.03703703703703702,0,0,0.03703703703703702,41.333333333333314,0)" xlink:href="#br"/><use transform="matrix(0.03703703703703702,0,0,0.03703703703703702,53.18518518518516,0)" xlink:href="#bs"/><use transform="matrix(0.03703703703703702,0,0,0.03703703703703702,60.59259259259257,0)" xlink:href="#bt"/></g><g id="V"><use transform="matrix(0.03703703703703702,0,0,0.03703703703703702,0,0)" xlink:href="#bF"/><use transform="matrix(0.03703703703703702,0,0,0.03703703703703702,9.592592592592588,0)" xlink:href="#bs"/><use transform="matrix(0.03703703703703702,0,0,0.03703703703703702,16.999999999999993,0)" xlink:href="#bp"/><use transform="matrix(0.03703703703703702,0,0,0.03703703703703702,24.407407407407398,0)" xlink:href="#bs"/><use transform="matrix(0.03703703703703702,0,0,0.03703703703703702,31.814814814814802,0)" xlink:href="#bx"/><use transform="matrix(0.03703703703703702,0,0,0.03703703703703702,39.22222222222221,0)" xlink:href="#bt"/><use transform="matrix(0.03703703703703702,0,0,0.03703703703703702,44.40740740740739,0)" xlink:href="#bC"/><use transform="matrix(0.03703703703703702,0,0,0.03703703703703702,51.814814814814795,0)" xlink:href="#bG"/></g><g id="W"><use transform="matrix(0.03703703703703702,0,0,0.03703703703703702,0,0)" xlink:href="#bm"/><use transform="matrix(0.03703703703703702,0,0,0.03703703703703702,9.592592592592588,0)" xlink:href="#bn"/><use transform="matrix(0.03703703703703702,0,0,0.03703703703703702,17.703703703703695,0)" xlink:href="#br"/><use transform="matrix(0.03703703703703702,0,0,0.03703703703703702,29.555555555555543,0)" xlink:href="#bs"/><use transform="matrix(0.03703703703703702,0,0,0.03703703703703702,36.96296296296295,0)" xlink:href="#bz"/><use transform="matrix(0.03703703703703702,0,0,0.03703703703703702,41.37037037037035,0)" xlink:href="#bL"/><use transform="matrix(0.03703703703703702,0,0,0.03703703703703702,45.074074074074055,0)" xlink:href="#bz"/><use transform="matrix(0.03703703703703702,0,0,0.03703703703703702,49.48148148148146,0)" xlink:href="#bL"/><use transform="matrix(0.03703703703703702,0,0,0.03703703703703702,53.18518518518516,0)" xlink:href="#bn"/><use transform="matrix(0.03703703703703702,0,0,0.03703703703703702,61.29629629629627,0)" xlink:href="#bo"/></g><g id="X"><use transform="matrix(0.03703703703703702,0,0,0.03703703703703702,0,0)" xlink:href="#bw"/><use transform="matrix(0.03703703703703702,0,0,0.03703703703703702,11.074074074074069,0)" xlink:href="#bx"/><use transform="matrix(0.03703703703703702,0,0,0.03703703703703702,18.481481481481474,0)" xlink:href="#bA"/><use transform="matrix(0.03703703703703702,0,0,0.03703703703703702,26.59259259259258,0)" xlink:href="#bA"/><use transform="matrix(0.03703703703703702,0,0,0.03703703703703702,34.70370370370369,0)" xlink:href="#bL"/><use transform="matrix(0.03703703703703702,0,0,0.03703703703703702,38.40740740740739,0)" xlink:href="#bo"/><use transform="matrix(0.03703703703703702,0,0,0.03703703703703702,46.5185185185185,0)" xlink:href="#bM"/></g><path fill="#fff" d="M144 0l-44-69L55 0H2l70-98-66-92h53l41 62 40-62h54l-67 91 71 99h-54" id="bS"/><g id="Y"><use transform="matrix(0.03703703703703702,0,0,0.03703703703703702,0,0)" xlink:href="#bw"/><use transform="matrix(0.03703703703703702,0,0,0.03703703703703702,11.074074074074069,0)" xlink:href="#bx"/><use transform="matrix(0.03703703703703702,0,0,0.03703703703703702,18.481481481481474,0)" xlink:href="#bz"/><use transform="matrix(0.03703703703703702,0,0,0.03703703703703702,22.88888888888888,0)" xlink:href="#bt"/><use transform="matrix(0.03703703703703702,0,0,0.03703703703703702,28.074074074074062,0)" xlink:href="#bL"/><use transform="matrix(0.03703703703703702,0,0,0.03703703703703702,31.777777777777764,0)" xlink:href="#bS"/></g><g id="Z"><use transform="matrix(0.03703703703703702,0,0,0.03703703703703702,0,0)" xlink:href="#bm"/><use transform="matrix(0.03703703703703702,0,0,0.03703703703703702,9.592592592592588,0)" xlink:href="#bq"/><use transform="matrix(0.03703703703703702,0,0,0.03703703703703702,17.703703703703695,0)" xlink:href="#bp"/><use transform="matrix(0.03703703703703702,0,0,0.03703703703703702,25.1111111111111,0)" xlink:href="#bz"/><use transform="matrix(0.03703703703703702,0,0,0.03703703703703702,29.518518518518505,0)" xlink:href="#bn"/><use transform="matrix(0.03703703703703702,0,0,0.03703703703703702,37.62962962962961,0)" xlink:href="#br"/><use transform="matrix(0.03703703703703702,0,0,0.03703703703703702,49.48148148148146,0)" xlink:href="#bs"/><use transform="matrix(0.03703703703703702,0,0,0.03703703703703702,56.888888888888864,0)" xlink:href="#bt"/></g><path fill="#fff" d="M24 0v-248h195v40H76v63h132v40H76v65h150V0H24" id="bT"/><g id="aa"><use transform="matrix(0.03703703703703702,0,0,0.03703703703703702,0,0)" xlink:href="#bT"/><use transform="matrix(0.03703703703703702,0,0,0.03703703703703702,8.888888888888886,0)" xlink:href="#bS"/><use transform="matrix(0.03703703703703702,0,0,0.03703703703703702,16.29629629629629,0)" xlink:href="#bA"/><use transform="matrix(0.03703703703703702,0,0,0.03703703703703702,24.407407407407398,0)" xlink:href="#bs"/><use transform="matrix(0.03703703703703702,0,0,0.03703703703703702,31.814814814814802,0)" xlink:href="#bt"/><use transform="matrix(0.03703703703703702,0,0,0.03703703703703702,36.999999999999986,0)" xlink:href="#bL"/><use transform="matrix(0.03703703703703702,0,0,0.03703703703703702,40.70370370370369,0)" xlink:href="#bs"/><use transform="matrix(0.03703703703703702,0,0,0.03703703703703702,48.11111111111109,0)" xlink:href="#bo"/><use transform="matrix(0.03703703703703702,0,0,0.03703703703703702,56.2222222222222,0)" xlink:href="#bo"/><use transform="matrix(0.03703703703703702,0,0,0.03703703703703702,64.33333333333331,0)" xlink:href="#bC"/><use transform="matrix(0.03703703703703702,0,0,0.03703703703703702,71.74074074074072,0)" xlink:href="#bs"/></g><g id="ab"><use transform="matrix(0.03703703703703702,0,0,0.03703703703703702,0,0)" xlink:href="#bw"/><use transform="matrix(0.03703703703703702,0,0,0.03703703703703702,11.074074074074069,0)" xlink:href="#bL"/><use transform="matrix(0.03703703703703702,0,0,0.03703703703703702,14.777777777777771,0)" xlink:href="#bp"/><use transform="matrix(0.03703703703703702,0,0,0.03703703703703702,22.185185185185176,0)" xlink:href="#bp"/><use transform="matrix(0.03703703703703702,0,0,0.03703703703703702,29.59259259259258,0)" xlink:href="#bL"/><use transform="matrix(0.03703703703703702,0,0,0.03703703703703702,33.29629629629628,0)" xlink:href="#bn"/><use transform="matrix(0.03703703703703702,0,0,0.03703703703703702,41.40740740740739,0)" xlink:href="#bo"/></g><use transform="matrix(0.03703703703703702,0,0,0.03703703703703702,0,0)" xlink:href="#bE" id="ac"/><g id="ad"><use transform="matrix(0.03703703703703702,0,0,0.03703703703703702,0,0)" xlink:href="#bK"/><use transform="matrix(0.03703703703703702,0,0,0.03703703703703702,7.407407407407404,0)" xlink:href="#bL"/><use transform="matrix(0.03703703703703702,0,0,0.03703703703703702,11.111111111111107,0)" xlink:href="#bp"/><use transform="matrix(0.03703703703703702,0,0,0.03703703703703702,18.51851851851851,0)" xlink:href="#bL"/><use transform="matrix(0.03703703703703702,0,0,0.03703703703703702,22.222222222222214,0)" xlink:href="#bn"/><use transform="matrix(0.03703703703703702,0,0,0.03703703703703702,30.333333333333314,0)" xlink:href="#bo"/></g><path fill="#fff" d="M140-251c80 0 125 45 125 126S219 4 139 4C58 4 15-44 15-125s44-126 125-126zm-1 214c52 0 73-35 73-88 0-50-21-86-72-86-52 0-73 35-73 86s22 88 72 88" id="bU"/><path fill="#fff" d="M135-194c52 0 70 43 70 98 0 56-19 99-73 100-30 1-46-15-58-35L72 0H24l1-261h50v104c11-23 29-37 60-37zM114-30c31 0 40-27 40-66 0-37-7-63-39-63s-41 28-41 65c0 36 8 64 40 64" id="bV"/><path fill="#fff" d="M25-224v-37h50v37H25zM75 22c2 45-34 59-81 51V38c22 5 31-5 31-27v-201h50V22" id="bW"/><g id="ae"><use transform="matrix(0.03703703703703702,0,0,0.03703703703703702,0,0)" xlink:href="#bU"/><use transform="matrix(0.03703703703703702,0,0,0.03703703703703702,10.370370370370367,0)" xlink:href="#bV"/><use transform="matrix(0.03703703703703702,0,0,0.03703703703703702,18.481481481481474,0)" xlink:href="#bW"/><use transform="matrix(0.03703703703703702,0,0,0.03703703703703702,22.185185185185176,0)" xlink:href="#bs"/><use transform="matrix(0.03703703703703702,0,0,0.03703703703703702,29.59259259259258,0)" xlink:href="#bC"/><use transform="matrix(0.03703703703703702,0,0,0.03703703703703702,36.999999999999986,0)" xlink:href="#bz"/><use transform="matrix(0.03703703703703702,0,0,0.03703703703703702,41.40740740740739,0)" xlink:href="#bL"/><use transform="matrix(0.03703703703703702,0,0,0.03703703703703702,45.11111111111109,0)" xlink:href="#bK"/><use transform="matrix(0.03703703703703702,0,0,0.03703703703703702,52.5185185185185,0)" xlink:href="#bs"/></g><g id="af"><use transform="matrix(0.03703703703703702,0,0,0.03703703703703702,0,0)" xlink:href="#bH"/><use transform="matrix(0.03703703703703702,0,0,0.03703703703703702,8.888888888888886,0)" xlink:href="#bB"/><use transform="matrix(0.03703703703703702,0,0,0.03703703703703702,12.592592592592586,0)" xlink:href="#bx"/><use transform="matrix(0.03703703703703702,0,0,0.03703703703703702,19.999999999999993,0)" xlink:href="#bo"/><use transform="matrix(0.03703703703703702,0,0,0.03703703703703702,28.1111111111111,0)" xlink:href="#bo"/><use transform="matrix(0.03703703703703702,0,0,0.03703703703703702,36.22222222222221,0)" xlink:href="#bL"/><use transform="matrix(0.03703703703703702,0,0,0.03703703703703702,39.92592592592591,0)" xlink:href="#bo"/><use transform="matrix(0.03703703703703702,0,0,0.03703703703703702,48.03703703703702,0)" xlink:href="#bM"/></g><g id="ag"><use transform="matrix(0.03703703703703702,0,0,0.03703703703703702,0,0)" xlink:href="#bQ"/><use transform="matrix(0.03703703703703702,0,0,0.03703703703703702,8.888888888888886,0)" xlink:href="#bq"/><use transform="matrix(0.03703703703703702,0,0,0.03703703703703702,16.999999999999993,0)" xlink:href="#bC"/><use transform="matrix(0.03703703703703702,0,0,0.03703703703703702,24.407407407407398,0)" xlink:href="#bC"/><use transform="matrix(0.03703703703703702,0,0,0.03703703703703702,31.814814814814802,0)" xlink:href="#bs"/><use transform="matrix(0.03703703703703702,0,0,0.03703703703703702,39.22222222222221,0)" xlink:href="#bp"/><use transform="matrix(0.03703703703703702,0,0,0.03703703703703702,46.62962962962961,0)" xlink:href="#bp"/></g><path fill="#fff" d="M136-208V0H84v-208H4v-40h212v40h-80" id="bX"/><g id="ah"><use transform="matrix(0.03703703703703702,0,0,0.03703703703703702,0,0)" xlink:href="#bX"/><use transform="matrix(0.03703703703703702,0,0,0.03703703703703702,7.111111111111107,0)" xlink:href="#bs"/><use transform="matrix(0.03703703703703702,0,0,0.03703703703703702,14.518518518518512,0)" xlink:href="#bo"/><use transform="matrix(0.03703703703703702,0,0,0.03703703703703702,22.62962962962962,0)" xlink:href="#bs"/><use transform="matrix(0.03703703703703702,0,0,0.03703703703703702,30.037037037037024,0)" xlink:href="#bz"/><use transform="matrix(0.03703703703703702,0,0,0.03703703703703702,34.44444444444443,0)" xlink:href="#bp"/></g><g id="ai"><use transform="matrix(0.03703703703703702,0,0,0.03703703703703702,0,0)" xlink:href="#bD"/><use transform="matrix(0.03703703703703702,0,0,0.03703703703703702,9.592592592592588,0)" xlink:href="#bs"/><use transform="matrix(0.03703703703703702,0,0,0.03703703703703702,16.999999999999993,0)" xlink:href="#bR"/><use transform="matrix(0.03703703703703702,0,0,0.03703703703703702,21.407407407407398,0)" xlink:href="#bL"/><use transform="matrix(0.03703703703703702,0,0,0.03703703703703702,25.1111111111111,0)" xlink:href="#bo"/><use transform="matrix(0.03703703703703702,0,0,0.03703703703703702,33.22222222222221,0)" xlink:href="#bL"/><use transform="matrix(0.03703703703703702,0,0,0.03703703703703702,36.92592592592591,0)" xlink:href="#bz"/><use transform="matrix(0.03703703703703702,0,0,0.03703703703703702,41.333333333333314,0)" xlink:href="#bL"/><use transform="matrix(0.03703703703703702,0,0,0.03703703703703702,45.03703703703702,0)" xlink:href="#bn"/><use transform="matrix(0.03703703703703702,0,0,0.03703703703703702,53.148148148148124,0)" xlink:href="#bo"/></g><g id="aj"><use transform="matrix(0.03703703703703702,0,0,0.03703703703703702,0,0)" xlink:href="#bH"/><use transform="matrix(0.03703703703703702,0,0,0.03703703703703702,8.888888888888886,0)" xlink:href="#bt"/><use transform="matrix(0.03703703703703702,0,0,0.03703703703703702,14.07407407407407,0)" xlink:href="#bn"/><use transform="matrix(0.03703703703703702,0,0,0.03703703703703702,22.185185185185176,0)" xlink:href="#bI"/><use transform="matrix(0.03703703703703702,0,0,0.03703703703703702,30.296296296296283,0)" xlink:href="#bq"/><use transform="matrix(0.03703703703703702,0,0,0.03703703703703702,38.40740740740739,0)" xlink:href="#bC"/><use transform="matrix(0.03703703703703702,0,0,0.03703703703703702,45.814814814814795,0)" xlink:href="#bz"/><use transform="matrix(0.03703703703703702,0,0,0.03703703703703702,50.2222222222222,0)" xlink:href="#bJ"/><use transform="matrix(0.03703703703703702,0,0,0.03703703703703702,53.9259259259259,0)" xlink:href="#bQ"/><use transform="matrix(0.03703703703703702,0,0,0.03703703703703702,62.81481481481479,0)" xlink:href="#bs"/><use transform="matrix(0.03703703703703702,0,0,0.03703703703703702,70.22222222222219,0)" xlink:href="#bt"/><use transform="matrix(0.03703703703703702,0,0,0.03703703703703702,75.40740740740736,0)" xlink:href="#bK"/><use transform="matrix(0.03703703703703702,0,0,0.03703703703703702,82.81481481481477,0)" xlink:href="#bL"/><use transform="matrix(0.03703703703703702,0,0,0.03703703703703702,86.51851851851846,0)" xlink:href="#bC"/><use transform="matrix(0.03703703703703702,0,0,0.03703703703703702,93.92592592592587,0)" xlink:href="#bs"/></g><g id="ak"><use transform="matrix(0.03703703703703702,0,0,0.03703703703703702,0,0)" xlink:href="#bv"/><use transform="matrix(0.03703703703703702,0,0,0.03703703703703702,10.370370370370367,0)" xlink:href="#bz"/><use transform="matrix(0.03703703703703702,0,0,0.03703703703703702,14.777777777777771,0)" xlink:href="#bN"/></g><path fill="#fff" d="M67-125c0 54 23 88 75 88 28 0 53-7 68-21v-34h-60v-39h108v91C232-14 192 4 140 4 58 4 20-42 15-125 8-236 126-280 215-234c19 10 29 26 37 47l-47 15c-11-23-29-39-63-39-53 1-75 33-75 86" id="bY"/><path fill="#fff" d="M231 0h-52l-39-155L100 0H48L-1-190h46L77-45c9-52 24-97 36-145h53l37 145 32-145h46" id="bZ"/><g id="al"><use transform="matrix(0.03703703703703702,0,0,0.03703703703703702,0,0)" xlink:href="#bY"/><use transform="matrix(0.03703703703703702,0,0,0.03703703703703702,10.370370370370367,0)" xlink:href="#bt"/><use transform="matrix(0.03703703703703702,0,0,0.03703703703703702,15.555555555555552,0)" xlink:href="#bn"/><use transform="matrix(0.03703703703703702,0,0,0.03703703703703702,23.666666666666657,0)" xlink:href="#bZ"/><use transform="matrix(0.03703703703703702,0,0,0.03703703703703702,34.037037037037024,0)" xlink:href="#bz"/><use transform="matrix(0.03703703703703702,0,0,0.03703703703703702,38.44444444444443,0)" xlink:href="#bG"/></g><g id="am"><use transform="matrix(0.03703703703703702,0,0,0.03703703703703702,0,0)" xlink:href="#bw"/><use transform="matrix(0.03703703703703702,0,0,0.03703703703703702,11.074074074074069,0)" xlink:href="#bx"/><use transform="matrix(0.03703703703703702,0,0,0.03703703703703702,18.481481481481474,0)" xlink:href="#bA"/><use transform="matrix(0.03703703703703702,0,0,0.03703703703703702,26.59259259259258,0)" xlink:href="#bA"/><use transform="matrix(0.03703703703703702,0,0,0.03703703703703702,34.70370370370369,0)" xlink:href="#bL"/><use transform="matrix(0.03703703703703702,0,0,0.03703703703703702,38.40740740740739,0)" xlink:href="#bo"/><use transform="matrix(0.03703703703703702,0,0,0.03703703703703702,46.5185185185185,0)" xlink:href="#bM"/></g><g id="an"><use transform="matrix(0.03703703703703702,0,0,0.03703703703703702,0,0)" xlink:href="#bO"/><use transform="matrix(0.03703703703703702,0,0,0.03703703703703702,9.592592592592588,0)" xlink:href="#bq"/><use transform="matrix(0.03703703703703702,0,0,0.03703703703703702,17.703703703703695,0)" xlink:href="#bI"/><use transform="matrix(0.03703703703703702,0,0,0.03703703703703702,25.814814814814802,0)" xlink:href="#bM"/><use transform="matrix(0.03703703703703702,0,0,0.03703703703703702,33.92592592592591,0)" xlink:href="#bs"/><use transform="matrix(0.03703703703703702,0,0,0.03703703703703702,41.333333333333314,0)" xlink:href="#bz"/></g><g id="ao"><use transform="matrix(0.03703703703703702,0,0,0.03703703703703702,0,0)" xlink:href="#bF"/><use transform="matrix(0.03703703703703702,0,0,0.03703703703703702,9.592592592592588,0)" xlink:href="#bs"/><use transform="matrix(0.03703703703703702,0,0,0.03703703703703702,16.999999999999993,0)" xlink:href="#bK"/><use transform="matrix(0.03703703703703702,0,0,0.03703703703703702,24.407407407407398,0)" xlink:href="#bs"/><use transform="matrix(0.03703703703703702,0,0,0.03703703703703702,31.814814814814802,0)" xlink:href="#bo"/><use transform="matrix(0.03703703703703702,0,0,0.03703703703703702,39.92592592592591,0)" xlink:href="#bq"/><use transform="matrix(0.03703703703703702,0,0,0.03703703703703702,48.03703703703702,0)" xlink:href="#bs"/></g><g id="ap"><use transform="matrix(0.03703703703703702,0,0,0.03703703703703702,0,0)" xlink:href="#bH"/><use transform="matrix(0.03703703703703702,0,0,0.03703703703703702,8.888888888888886,0)" xlink:href="#bt"/><use transform="matrix(0.03703703703703702,0,0,0.03703703703703702,14.07407407407407,0)" xlink:href="#bn"/><use transform="matrix(0.03703703703703702,0,0,0.03703703703703702,22.185185185185176,0)" xlink:href="#bW"/><use transform="matrix(0.03703703703703702,0,0,0.03703703703703702,25.88888888888888,0)" xlink:href="#bs"/><use transform="matrix(0.03703703703703702,0,0,0.03703703703703702,33.29629629629628,0)" xlink:href="#bC"/><use transform="matrix(0.03703703703703702,0,0,0.03703703703703702,40.70370370370369,0)" xlink:href="#bz"/><use transform="matrix(0.03703703703703702,0,0,0.03703703703703702,45.11111111111109,0)" xlink:href="#bL"/><use transform="matrix(0.03703703703703702,0,0,0.03703703703703702,48.814814814814795,0)" xlink:href="#bn"/><use transform="matrix(0.03703703703703702,0,0,0.03703703703703702,56.9259259259259,0)" xlink:href="#bo"/></g><g id="aq"><use transform="matrix(0.03703703703703702,0,0,0.03703703703703702,0,0)" xlink:href="#bH"/><use transform="matrix(0.03703703703703702,0,0,0.03703703703703702,8.888888888888886,0)" xlink:href="#bt"/><use transform="matrix(0.03703703703703702,0,0,0.03703703703703702,14.07407407407407,0)" xlink:href="#bn"/><use transform="matrix(0.03703703703703702,0,0,0.03703703703703702,22.185185185185176,0)" xlink:href="#bC"/><use transform="matrix(0.03703703703703702,0,0,0.03703703703703702,29.59259259259258,0)" xlink:href="#bL"/><use transform="matrix(0.03703703703703702,0,0,0.03703703703703702,33.29629629629628,0)" xlink:href="#bo"/><use transform="matrix(0.03703703703703702,0,0,0.03703703703703702,41.40740740740739,0)" xlink:href="#bM"/></g><g id="ar"><use transform="matrix(0.03703703703703702,0,0,0.03703703703703702,0,0)" xlink:href="#bI"/><use transform="matrix(0.03703703703703702,0,0,0.03703703703703702,8.111111111111107,0)" xlink:href="#bs"/><use transform="matrix(0.03703703703703702,0,0,0.03703703703703702,15.518518518518512,0)" xlink:href="#bC"/><use transform="matrix(0.03703703703703702,0,0,0.03703703703703702,22.925925925925917,0)" xlink:href="#bL"/><use transform="matrix(0.03703703703703702,0,0,0.03703703703703702,26.62962962962962,0)" xlink:href="#bp"/><use transform="matrix(0.03703703703703702,0,0,0.03703703703703702,34.037037037037024,0)" xlink:href="#bL"/><use transform="matrix(0.03703703703703702,0,0,0.03703703703703702,37.740740740740726,0)" xlink:href="#bn"/><use transform="matrix(0.03703703703703702,0,0,0.03703703703703702,45.85185185185183,0)" xlink:href="#bo"/><use transform="matrix(0.03703703703703702,0,0,0.03703703703703702,53.96296296296294,0)" xlink:href="#bp"/></g></defs></g></svg>